<?xml version="1.0" encoding="utf-8"?>
<!-- Generator: Adobe Illustrator 24.2.0, SVG Export Plug-In . SVG Version: 6.00 Build 0)  -->
<svg version="1.1" id="Layer_1" xmlns="http://www.w3.org/2000/svg" xmlns:xlink="http://www.w3.org/1999/xlink" x="0px" y="0px"
	 viewBox="0 0 442 442" style="enable-background:new 0 0 442 442;" xml:space="preserve">
<style type="text/css">
	.st0{fill:url(#SVGID_1_);}
	.st1{fill:url(#SVGID_2_);}
	.st2{fill:url(#SVGID_3_);}
	.st3{fill:#BC0768;}
	.st4{opacity:0.3;}
	.st5{fill:url(#SVGID_4_);}
	.st6{fill:url(#SVGID_5_);}
	.st7{opacity:0.6;fill:url(#SVGID_6_);enable-background:new    ;}
	.st8{fill:url(#SVGID_7_);}
	.st9{fill:url(#SVGID_8_);}
	.st10{fill:url(#SVGID_9_);}
	.st11{fill:url(#SVGID_10_);}
	.st12{fill:url(#SVGID_11_);}
	.st13{fill:#EC187C;}
	.st14{fill:url(#SVGID_12_);}
	.st15{fill:url(#SVGID_13_);}
	.st16{fill:url(#SVGID_14_);}
	.st17{opacity:0.5;fill:url(#SVGID_15_);enable-background:new    ;}
	.st18{opacity:0.5;fill:#BC0768;enable-background:new    ;}
	.st19{fill:#FC77BD;}
	.st20{opacity:0.7;fill:#BC0768;enable-background:new    ;}
	.st21{fill:url(#SVGID_16_);}
	.st22{fill:url(#SVGID_17_);}
	.st23{fill:url(#SVGID_18_);}
	.st24{fill:url(#SVGID_19_);}
	.st25{fill:url(#SVGID_20_);}
	.st26{fill:url(#SVGID_21_);}
	.st27{fill:url(#SVGID_22_);}
	.st28{fill:url(#SVGID_23_);}
	.st29{fill:url(#SVGID_24_);}
	.st30{fill:#04217C;}
	.st31{fill:url(#SVGID_25_);}
	.st32{fill:url(#SVGID_26_);}
	.st33{fill:url(#SVGID_27_);}
	.st34{fill:url(#SVGID_28_);}
	.st35{opacity:0.5;fill:url(#SVGID_29_);enable-background:new    ;}
	.st36{fill:#F1EEFF;}
	.st37{fill:#0C2C9D;}
	.st38{fill:url(#SVGID_30_);}
	.st39{fill:url(#SVGID_31_);}
	.st40{fill:#8F87C9;}
	.st41{fill:url(#SVGID_32_);}
	.st42{fill:url(#SVGID_33_);}
	.st43{fill:url(#SVGID_34_);}
	.st44{fill:url(#SVGID_35_);}
	.st45{fill:url(#SVGID_36_);}
	.st46{fill:url(#SVGID_37_);}
	.st47{fill:url(#SVGID_38_);}
	.st48{fill:url(#SVGID_39_);}
	.st49{fill:url(#SVGID_40_);}
	.st50{fill:url(#SVGID_41_);}
	.st51{fill:url(#SVGID_42_);}
	.st52{fill:url(#SVGID_43_);}
	.st53{fill:url(#SVGID_44_);}
	.st54{fill:url(#SVGID_45_);}
	.st55{fill:url(#SVGID_46_);}
	.st56{fill:url(#SVGID_47_);}
	.st57{fill:url(#SVGID_48_);}
	.st58{fill:url(#SVGID_49_);}
	.st59{fill:#F13892;}
	.st60{opacity:0.3;fill:#382074;enable-background:new    ;}
</style>
<g>
	
		<linearGradient id="SVGID_1_" gradientUnits="userSpaceOnUse" x1="242.099" y1="293.4891" x2="231.7807" y2="247.5423" gradientTransform="matrix(1 0 0 -1 0 441.8898)">
		<stop  offset="0" style="stop-color:#FC77BD"/>
		<stop  offset="1" style="stop-color:#A0045A"/>
	</linearGradient>
	<path class="st0" d="M307,368.7L106.7,250.4l-1.7-1c-3.1-1.8-7.6-1.5-11.9,0.6l-19.7,9.9l-10.7-2l18-22.4c-5.2-3-7.1-8.8-5.1-15.4
		l53.4-163.9c0,0,4.5,0.9,12.6,2.2c1.7,0.3,3.4,0.9,4.9,1.7l223.9,128.7c9.5,5.4,13.6,21,9.2,34.8L338.4,354
		c-2.8,9-8.6,14.9-14.8,16.5C320.2,371.4,307,368.7,307,368.7z"/>
	
		<linearGradient id="SVGID_2_" gradientUnits="userSpaceOnUse" x1="228.0875" y1="738.0486" x2="482.6737" y2="746.0384" gradientTransform="matrix(0.86 0.49 0.39 -1.24 -414.2069 946.0731)">
		<stop  offset="0" style="stop-color:#F13892"/>
		<stop  offset="1" style="stop-color:#D80976"/>
	</linearGradient>
	<path class="st1" d="M302.7,367.1L96.1,248.3l-1.7-1c-3.1-1.8-7.6-1.5-11.9,0.6l-19.8,9.9l7.4-24.4c-5.2-3-7.1-8.8-5.1-15.4
		L111,73.1c4.4-13.8,15.6-20.5,25.1-15.1l223.9,128.6c9.5,5.4,13.6,21,9.2,34.8L327.8,352C323.4,365.8,312.2,372.5,302.7,367.1z"/>
	
		<linearGradient id="SVGID_3_" gradientUnits="userSpaceOnUse" x1="62.8464" y1="229.3013" x2="370.9097" y2="229.3013" gradientTransform="matrix(1 0 0 -1 0 441.8898)">
		<stop  offset="0" style="stop-color:#FC77BD;stop-opacity:0"/>
		<stop  offset="1" style="stop-color:#FC77BD"/>
	</linearGradient>
	<path class="st2" d="M129.2,56.2v1.4c2.2,0,4.3,0.6,6.1,1.7L359.2,188c8.9,5.1,12.7,19.9,8.6,33.1l-41.4,130.5
		c-3,9.5-9.8,15.9-16.8,15.9c-2.2,0-4.3-0.6-6.1-1.7L96.8,247.1l-1.7-1c-1.7-0.9-3.6-1.4-5.6-1.4c-2.7,0-5.3,0.7-7.7,1.9l-16.8,8.4
		l6.4-21.2c0.2-0.6-0.1-1.3-0.7-1.7c-4.6-2.7-6.3-7.8-4.4-13.7l45.9-144.9c3-9.5,9.8-15.9,16.9-15.9L129.2,56.2 M129.3,56.2
		c-7.5,0-14.9,6.4-18.2,17L65.1,218.1c-2.1,6.5-0.1,12.4,5.1,15.4l-7.4,24.4l19.8-9.9c2.2-1.1,4.6-1.7,7.1-1.8
		c1.7,0,3.3,0.4,4.8,1.2l1.7,1l206.6,118.7c2.1,1.2,4.4,1.9,6.9,1.9c7.5,0,14.9-6.4,18.2-17l41.4-130.5c4.4-13.8,0.2-29.3-9.2-34.8
		L136,58.1C134,56.9,131.6,56.2,129.3,56.2L129.3,56.2z"/>
	<path class="st3" d="M173.8,134.5l-47.5-27.3c-0.9-0.5-1.4-2.1-0.9-3.5l2.9-9c0.4-1.4,1.6-2,2.5-1.5l47.5,27.3
		c0.9,0.5,1.4,2.1,0.9,3.5l-2.9,9C175.9,134.4,174.7,135.1,173.8,134.5z"/>
	<path class="st3" d="M142.3,152.2l-25.6-14.7c-0.9-0.5-1.4-2.1-0.9-3.5l2.9-9c0.4-1.4,1.6-2,2.5-1.5l25.6,14.7
		c0.9,0.5,1.4,2.1,0.9,3.5l-2.9,9C144.3,152,143.2,152.7,142.3,152.2z"/>
	<path class="st3" d="M148.9,181.4l-39-22.4c-0.9-0.5-1.4-2.1-0.9-3.5l2.9-9c0.4-1.4,1.6-2,2.5-1.5l39,22.4c0.9,0.5,1.4,2.1,0.9,3.5
		l-2.9,9C151,181.2,149.9,181.9,148.9,181.4z"/>
	<path class="st3" d="M142.1,202.8l-39-22.4c-0.9-0.5-1.4-2.1-0.9-3.5l2.9-9c0.4-1.4,1.6-2,2.5-1.5l39,22.4c0.9,0.5,1.4,2.1,0.9,3.5
		l-2.9,9C144.2,202.7,143.1,203.4,142.1,202.8z"/>
	<path class="st3" d="M220.1,196.9L150.7,157c-0.9-0.5-1.4-2.1-0.9-3.5l2.9-9c0.4-1.4,1.6-2,2.5-1.5l69.4,39.9
		c0.9,0.5,1.4,2.1,0.9,3.5l-2.9,9C222.2,196.8,221.1,197.4,220.1,196.9z"/>
	<path class="st3" d="M198.2,209.7l-40.8-23.5c-0.9-0.5-1.4-2.1-0.9-3.5l2.9-9c0.4-1.4,1.6-2.1,2.5-1.5l40.8,23.5
		c0.9,0.5,1.4,2.1,0.9,3.5l-2.9,9C200.3,209.6,199.2,210.2,198.2,209.7z"/>
	<path class="st3" d="M276.1,229l-47.5-27.3c-0.9-0.5-1.4-2.1-0.9-3.5l2.9-9c0.4-1.4,1.6-2,2.5-1.5l47.5,27.3
		c0.9,0.5,1.4,2.1,0.9,3.5l-2.9,9C278.2,228.9,277,229.6,276.1,229z"/>
	<path class="st3" d="M251.9,240.5l-45.2-26c-0.9-0.5-1.4-2.1-0.9-3.5l2.9-9c0.4-1.4,1.6-2.1,2.5-1.5l45.2,26
		c0.9,0.5,1.4,2.1,0.9,3.5l-2.9,9C254,240.4,252.8,241.1,251.9,240.5z"/>
	<path class="st3" d="M332,261.2l-47.5-27.3c-0.9-0.5-1.4-2.1-0.9-3.5l2.9-9c0.4-1.4,1.6-2.1,2.5-1.5l47.5,27.3
		c0.9,0.5,1.4,2.1,0.9,3.5l-2.9,9C334.1,261,333,261.7,332,261.2z"/>
	<path class="st3" d="M310.4,274.1l-50-28.7c-0.9-0.5-1.4-2.1-0.9-3.5l2.9-9c0.4-1.4,1.6-2.1,2.5-1.5l50,28.7
		c0.9,0.5,1.4,2.1,0.9,3.5l-2.9,9C312.5,274,311.3,274.7,310.4,274.1z"/>
	<path class="st3" d="M140.1,240.7l-47.5-27.3c-0.9-0.5-1.4-2.1-0.9-3.5l2.9-9c0.4-1.4,1.6-2.1,2.5-1.5l47.5,27.3
		c0.9,0.5,1.4,2.1,0.9,3.5l-2.9,9C142.1,240.6,141,241.3,140.1,240.7z"/>
	<g class="st4">
		
			<linearGradient id="SVGID_4_" gradientUnits="userSpaceOnUse" x1="115.2893" y1="230.8551" x2="309.7159" y2="230.8551" gradientTransform="matrix(1 0 0 -1 0 441.8898)">
			<stop  offset="0" style="stop-color:#FFFFFF"/>
			<stop  offset="0.93" style="stop-color:#FFFFFF;stop-opacity:0"/>
		</linearGradient>
		<polygon class="st5" points="337.9,174 175.8,294.2 96.1,248.3 95.5,248 257.5,127.9 		"/>
		
			<linearGradient id="SVGID_5_" gradientUnits="userSpaceOnUse" x1="202.108" y1="191.5731" x2="349.5199" y2="191.5731" gradientTransform="matrix(1 0 0 -1 0 441.8898)">
			<stop  offset="0" style="stop-color:#FFFFFF"/>
			<stop  offset="0.93" style="stop-color:#FFFFFF;stop-opacity:0"/>
		</linearGradient>
		<path class="st6" d="M370.9,209L221,320.1l-33.9-19.5l162-120.1l10.8,6.2C366.6,190.5,370.6,199.3,370.9,209z"/>
	</g>
	
		<linearGradient id="SVGID_6_" gradientUnits="userSpaceOnUse" x1="252.1898" y1="259.1766" x2="279.2985" y2="292.9261" gradientTransform="matrix(1 0 0 -1 0 441.8898)">
		<stop  offset="0" style="stop-color:#A0045A"/>
		<stop  offset="0.14" style="stop-color:#A0045A;stop-opacity:0.91"/>
		<stop  offset="0.4" style="stop-color:#A0045A;stop-opacity:0.66"/>
		<stop  offset="0.77" style="stop-color:#A0045A;stop-opacity:0.27"/>
		<stop  offset="1" style="stop-color:#A0045A;stop-opacity:0"/>
	</linearGradient>
	<polygon class="st7" points="322.4,156.8 272.9,227.7 248.1,117.7 249.7,115 	"/>
	
		<linearGradient id="SVGID_7_" gradientUnits="userSpaceOnUse" x1="155.9179" y1="304.4957" x2="180.0524" y2="304.4957" gradientTransform="matrix(1 0 0 -1 -6.927490e-03 441.8907)">
		<stop  offset="0" style="stop-color:#D8D4F2"/>
		<stop  offset="1" style="stop-color:#A8A1D7"/>
	</linearGradient>
	<path class="st8" d="M159.5,132.4c4.7-8.1,12.4-12.5,17.1-9.7c4.7,2.7,4.6,11.5-0.1,19.6c-4.7,8.1-12.4,12.5-17.1,9.7
		S154.8,140.6,159.5,132.4z"/>
	
		<linearGradient id="SVGID_8_" gradientUnits="userSpaceOnUse" x1="121.5407" y1="332.3958" x2="170.746" y2="332.3958" gradientTransform="matrix(1 0 0 -1 0 441.8898)">
		<stop  offset="0" style="stop-color:#F1EEFF"/>
		<stop  offset="1" style="stop-color:#D8D4F2"/>
	</linearGradient>
	<path class="st9" d="M161.8,149.6c-0.6,0.1-1.3,0.2-1.9,0.2c-3.2,0-6.3-1-9-2.7c-6-3.5-10.1-10.1-13.2-17.2
		c-2.5-5.6-15.7-40.4-16.1-53.6c-0.2-6.4,1.3-8.6,5.3-6c0.4,0.3,0.9,0.7,1.4,1.1c1.9,1.5,37.6,38.5,42.3,64.4
		C171.9,143.5,167.2,148.5,161.8,149.6z"/>
	
		<linearGradient id="SVGID_9_" gradientUnits="userSpaceOnUse" x1="125.9967" y1="331.9589" x2="170.7515" y2="331.9589" gradientTransform="matrix(1 0 0 -1 0 441.8898)">
		<stop  offset="0" style="stop-color:#D8D4F2"/>
		<stop  offset="1" style="stop-color:#A8A1D7"/>
	</linearGradient>
	<path class="st10" d="M161.8,149.6c-2.3-0.4-4.5-1.3-6.5-2.5c-6-3.5-10.1-10.1-13.2-17.2c-2.5-5.6-15.7-40.4-16.1-53.6
		c-0.1-2.8,0.1-4.8,0.8-6c0.4,0.3,0.9,0.7,1.4,1.1c1.9,1.5,37.6,38.5,42.3,64.4C171.9,143.5,167.2,148.5,161.8,149.6z"/>
	
		<linearGradient id="SVGID_10_" gradientUnits="userSpaceOnUse" x1="158.6762" y1="303.7387" x2="177.4545" y2="303.7387" gradientTransform="matrix(0.9948 -2.369615e-03 -2.369615e-03 -0.9948 8.578796e-02 439.8045)">
		<stop  offset="0" style="stop-color:#1336BF"/>
		<stop  offset="1" style="stop-color:#0C2C9D"/>
	</linearGradient>
	<path class="st11" d="M160,133.4c3.7-6.3,9.6-9.7,13.2-7.6c3.6,2.1,3.6,8.9,0,15.2c-3.7,6.3-9.6,9.7-13.2,7.6
		S156.3,139.7,160,133.4z"/>
	
		<linearGradient id="SVGID_11_" gradientUnits="userSpaceOnUse" x1="158.5333" y1="314.6169" x2="287.5214" y2="314.6169" gradientTransform="matrix(1 0 0 -1 0 441.8898)">
		<stop  offset="0" style="stop-color:#F1EEFF"/>
		<stop  offset="1" style="stop-color:#D8D4F2"/>
	</linearGradient>
	<path class="st12" d="M287.5,127.5L287.5,127.5c0,9.5-6.2,19-18.7,26.2c-25.1,14.5-65.9,14.5-91.2-0.2c-0.3-0.2-0.6-0.4-0.9-0.6
		c-9.5-5.7-15.3-12.7-17.3-19.9c-0.4-1.5-0.7-3-0.8-4.6c-0.2-3.3,0.3-6.7,1.6-9.8c2.6-6.5,8.3-12.7,17.1-17.8
		c25.1-14.5,65.9-14.5,91.2,0.2c11.7,6.7,18,15.4,18.9,24.2v0.1C287.5,126.1,287.5,126.8,287.5,127.5z"/>
	
		<ellipse transform="matrix(5.410451e-03 -1 1 5.410451e-03 102.2216 342.0035)" class="st13" cx="223" cy="119.6" rx="27.8" ry="48.2"/>
	
		<linearGradient id="SVGID_12_" gradientUnits="userSpaceOnUse" x1="177.7306" y1="322.281" x2="268.3546" y2="322.281" gradientTransform="matrix(1 0 0 -1 -2.309059e-03 441.8947)">
		<stop  offset="0" style="stop-color:#F1EEFF"/>
		<stop  offset="1" style="stop-color:#FFFFFF"/>
	</linearGradient>
	<path class="st14" d="M177.7,119.4c0.1-14.4,20.4-26.1,45.5-25.9s45.2,12,45.2,26.4c-0.1,14.4-20.4,26.1-45.5,25.9
		C197.9,145.6,177.7,133.8,177.7,119.4z"/>
	
		<linearGradient id="SVGID_13_" gradientUnits="userSpaceOnUse" x1="191.2046" y1="322.281" x2="254.8806" y2="322.281" gradientTransform="matrix(1 0 0 -1 -2.309059e-03 441.8947)">
		<stop  offset="0" style="stop-color:#1336BF"/>
		<stop  offset="1" style="stop-color:#0C2C9D"/>
	</linearGradient>
	<path class="st15" d="M191.2,119.4c0.1-10.2,14.4-18.3,31.9-18.2c17.6,0.1,31.8,8.4,31.7,18.6c-0.1,10.2-14.4,18.3-31.9,18.2
		C205.4,137.9,191.1,129.6,191.2,119.4z"/>
	
		<radialGradient id="SVGID_14_" cx="281.6898" cy="390.0633" r="184.036" gradientTransform="matrix(0.22 0.98 0.54 -0.12 -109.1501 -79.3137)" gradientUnits="userSpaceOnUse">
		<stop  offset="0" style="stop-color:#F1EEFF"/>
		<stop  offset="1" style="stop-color:#A8A1D7"/>
	</radialGradient>
	<path class="st16" d="M287.9,142.7c0,12.5-0.8,25-2.4,37.3c-0.3,2.1-0.6,4.3-0.9,6.4l0,0c-0.5,2.9-1,5.8-1.5,8.6l0,0
		c-0.5,2.4-1,4.8-1.5,7.1l0,0c-10.4,45.3-32.4,75.7-58,75.7c-4.8,0-9.5-1.2-13.8-3.3c-5.6-2.7-11-7.1-16-12.8
		c-1.1-1.3-2.2-2.6-3.3-4l0,0c-4.1-5.4-7.6-11.2-10.6-17.2l0,0c-0.3-0.7-0.7-1.4-1-2.1l-0.2-0.4l-0.9-2c0-0.1-0.1-0.1-0.1-0.2
		c-9.6-20.9-16.2-48-18.4-77.9c-0.5-6.8-0.7-13.8-0.7-20.8c0-2.9,0-5.7,0.1-8.6c0.1,1.6,0.4,3.1,0.8,4.6c2,7.2,7.8,14.3,17.3,19.9
		c0.3,0.2,0.6,0.4,0.9,0.6c3.7,2.1,7.7,3.9,11.7,5.4c15.6,5.6,34.5,7,51.6,4.2c10.2-1.6,19.8-4.8,27.8-9.4
		c12.5-7.2,18.7-16.7,18.7-26.2C287.8,132.5,287.9,137.6,287.9,142.7z"/>
	
		<linearGradient id="SVGID_15_" gradientUnits="userSpaceOnUse" x1="159.0944" y1="236.3494" x2="213.5929" y2="245.4713" gradientTransform="matrix(1 0 0 -1 0 441.8898)">
		<stop  offset="0" style="stop-color:#F1EEFF"/>
		<stop  offset="1" style="stop-color:#D8D4F2"/>
	</linearGradient>
	<path class="st17" d="M240.9,163.1c-0.4,5.2-0.8,10.3-1.4,15.3c-0.3,2.6-0.6,5.1-0.9,7.6l0,0c-0.5,3.5-1,6.9-1.5,10.3l0,0
		c-0.5,2.9-1,5.7-1.5,8.5l0,0c-5.6,29.5-14.7,53.7-25.9,69.6c-5.6-2.7-11-7.1-16-12.8c-1.1-1.3-2.2-2.6-3.3-4l0,0
		c-4.1-5.4-7.6-11.2-10.6-17.2l0,0c-0.3-0.7-0.7-1.4-1-2.1l-0.2-0.4c-0.3-0.6-0.6-1.3-0.9-1.9c0-0.1-0.1-0.2-0.1-0.2
		c-9.6-20.9-16.2-48-18.4-77.9c-0.5-6.8-0.7-13.8-0.7-20.8c0-2.9,0-5.7,0.1-8.6c0.1,1.6,0.4,3.1,0.8,4.6c1.4,5.1,4.7,10.1,9.9,14.7
		c2.3,2,4.7,3.7,7.3,5.3l0.3,0.2l0.6,0.4c1.3,0.8,2.7,1.5,4.1,2.2c2.5,1.2,5,2.3,7.6,3.2h0.1c2.5,0.9,5.1,1.7,7.7,2.4
		c2.5,0.7,5.1,1.2,7.7,1.7C216.7,164.9,229,165,240.9,163.1z"/>
	<path class="st18" d="M282.2,199c-10.1,47-32.6,78.8-58.7,78.8c-11.5,0-22.3-6.7-31.7-18.4c2.8,0.9,5.8,1.3,8.8,1.3
		C221.6,260.7,256.9,235.3,282.2,199z"/>
	<path class="st19" d="M285.5,180.1c-0.3,2.1-0.6,4.3-0.9,6.4l0,0c0.2,2.9-0.4,5.9-1.5,8.6l0,0c-0.5,1.2-1.1,2.3-1.8,3.3
		c-19,28.7-41.2,48.4-66,58.6c-10.2,4.2-18.5,4.4-24.7,0.7l0,0c-0.8-0.5-1.5-1-2.2-1.6c-5.5-4.5-7.7-11.4-8.4-15.7l0,0
		c-0.3-0.7-0.7-1.4-1-2.1l-0.2-0.4c-0.3-0.6-0.6-1.3-0.9-1.9c0-0.1-0.1-0.2-0.1-0.2c-0.1,0.2-0.2,0.4-0.2,0.6
		c-0.6,2.9,1.2,14.8,9.4,21.6c2.1,1.7,4.4,3,7,3.8c2.2,0.7,4.6,1,6.9,1c4.6,0,9.8-1.2,15.4-3.5c24.6-10.1,46.6-29.3,65.4-57l0,0
		c0.6-0.8,1.1-1.6,1.7-2.5C287.1,193.9,288,186.6,285.5,180.1z"/>
	<path class="st20" d="M190.5,257.6c-0.8-0.5-1.5-1-2.2-1.6c-5.5-4.5-7.7-11.4-8.4-15.7C182.8,246.4,186.4,252.2,190.5,257.6z"/>
	
		<linearGradient id="SVGID_16_" gradientUnits="userSpaceOnUse" x1="258.6841" y1="271.6365" x2="282.8186" y2="271.6365" gradientTransform="matrix(1 0 0 -1 -4.044784e-03 441.8979)">
		<stop  offset="0" style="stop-color:#D8D4F2"/>
		<stop  offset="1" style="stop-color:#A8A1D7"/>
	</linearGradient>
	<path class="st21" d="M262.3,165.3c4.7-8.1,12.4-12.5,17.1-9.7c4.7,2.7,4.6,11.5-0.1,19.6c-4.7,8.1-12.4,12.5-17.1,9.7
		C257.5,182.2,257.5,173.4,262.3,165.3z"/>
	
		<linearGradient id="SVGID_17_" gradientUnits="userSpaceOnUse" x1="279.5393" y1="281.2715" x2="261.9634" y2="262.0015" gradientTransform="matrix(1 0 0 -1 -4.044784e-03 441.8979)">
		<stop  offset="0" style="stop-color:#1336BF"/>
		<stop  offset="1" style="stop-color:#0C2C9D"/>
	</linearGradient>
	<path class="st22" d="M264.1,166.4c3.7-6.3,9.6-9.7,13.3-7.6c3.6,2.1,3.6,9-0.1,15.3c-3.7,6.3-9.6,9.7-13.3,7.6
		C260.4,179.6,260.5,172.7,264.1,166.4z"/>
	
		<linearGradient id="SVGID_18_" gradientUnits="userSpaceOnUse" x1="241.7575" y1="246.8826" x2="295.9483" y2="246.8826" gradientTransform="matrix(1 0 0 -1 0 441.8898)">
		<stop  offset="0" style="stop-color:#F1EEFF"/>
		<stop  offset="1" style="stop-color:#D8D4F2"/>
	</linearGradient>
	<path class="st23" d="M295.9,170.2c0,12.5-11.6,24.4-19.7,34c-11.7,13.8-20.7,23-26.7,27.1c-8.1,5.6-10.2,1.7-4.9-12.7
		c1.3-3.6,3.1-7.8,5.4-12.6c1.8-3.9,15.3-40.7,26.1-47c7.6-4.4,14.2-3.2,17.5,2.1C295.3,163.9,296.1,167,295.9,170.2z"/>
	
		<linearGradient id="SVGID_19_" gradientUnits="userSpaceOnUse" x1="292.423" y1="277.0996" x2="247.9457" y2="207.9868" gradientTransform="matrix(1 0 0 -1 0 441.8898)">
		<stop  offset="0" style="stop-color:#F1EEFF"/>
		<stop  offset="1" style="stop-color:#FFFFFF"/>
	</linearGradient>
	<path class="st24" d="M295.9,170.2c0,12.5-11.6,24.4-19.7,34c-11.7,13.8-20.7,23-26.7,27.1c0.6-2.7,1.5-5.4,2.5-8
		c1.3-3.6,3.1-7.8,5.4-12.6c1.8-3.9,15.3-40.7,26.1-47c3.7-2.1,7.2-3,10.1-2.6C295.3,163.9,296,167,295.9,170.2z"/>
	
		<linearGradient id="SVGID_20_" gradientUnits="userSpaceOnUse" x1="209.3001" y1="296.4635" x2="191.0403" y2="224.5322" gradientTransform="matrix(1 0 0 -1 0 441.8898)">
		<stop  offset="0" style="stop-color:#F1EEFF"/>
		<stop  offset="1" style="stop-color:#F1EEFF;stop-opacity:0"/>
	</linearGradient>
	<path class="st25" d="M204.7,162.9l-0.3,66.6l-7.7-4.5l-7.7-4.5l0.3-61.7c2.5,0.9,5.1,1.7,7.7,2.4
		C199.6,161.9,202.1,162.5,204.7,162.9z"/>
	
		<linearGradient id="SVGID_21_" gradientUnits="userSpaceOnUse" x1="201.1626" y1="298.528" x2="182.9028" y2="226.6047" gradientTransform="matrix(1 0 0 -1 0 441.8898)">
		<stop  offset="0" style="stop-color:#F1EEFF"/>
		<stop  offset="1" style="stop-color:#F1EEFF;stop-opacity:0"/>
	</linearGradient>
	<path class="st26" d="M197,161.3l-0.3,63.8l-7.7-4.5l-7.7-4.5l0.3-60.4c2.5,1.2,5,2.3,7.6,3.2h0.1
		C191.9,159.8,194.4,160.6,197,161.3z"/>
	
		<linearGradient id="SVGID_22_" gradientUnits="userSpaceOnUse" x1="183.5768" y1="302.9948" x2="165.3169" y2="231.0634" gradientTransform="matrix(1 0 0 -1 0 441.8898)">
		<stop  offset="0" style="stop-color:#F1EEFF"/>
		<stop  offset="1" style="stop-color:#F1EEFF;stop-opacity:0"/>
	</linearGradient>
	<path class="st27" d="M177,153.2l-0.3,60.2l-7.7-4.5l0.3-61.2c2.3,2,4.7,3.7,7.3,5.3L177,153.2z"/>
	
		<linearGradient id="SVGID_23_" gradientUnits="userSpaceOnUse" x1="179.6411" y1="403.3895" x2="164.1435" y2="381.187" gradientTransform="matrix(1 0 0 -1 0 441.8898)">
		<stop  offset="0" style="stop-color:#D8D4F2"/>
		<stop  offset="1" style="stop-color:#A8A1D7"/>
	</linearGradient>
	<path class="st28" d="M184.1,39.4c-1.1-0.8-2.3-1.5-3.5-2.1c-2-1-4.7-0.8-7.6,0.9c-6.2,3.5-11.2,12.1-11.2,19.2
		c0,3.5,1.2,5.9,3.1,7.1s4.1,2.2,4.1,2.2L184.1,39.4z"/>
	
		<linearGradient id="SVGID_24_" gradientUnits="userSpaceOnUse" x1="164.5602" y1="389.2556" x2="186.8545" y2="389.2556" gradientTransform="matrix(1 0 0 -1 -1.011779e-02 441.8925)">
		<stop  offset="0" style="stop-color:#F1EEFF"/>
		<stop  offset="1" style="stop-color:#D8D4F2"/>
	</linearGradient>
	<path class="st29" d="M167.9,48.1c4.4-7.5,11.4-11.5,15.8-9c4.3,2.5,4.3,10.7-0.1,18.1s-11.4,11.5-15.8,9
		C163.4,63.7,163.5,55.6,167.9,48.1z"/>
	
		<ellipse transform="matrix(0.5047 -0.8633 0.8633 0.5047 42.4757 180.2279)" class="st30" cx="178.3" cy="53.1" rx="21.1" ry="12.2"/>
	
		<linearGradient id="SVGID_25_" gradientUnits="userSpaceOnUse" x1="172.7589" y1="414.6938" x2="191.4443" y2="414.6938" gradientTransform="matrix(1 0 0 -1 0 441.8898)">
		<stop  offset="0" style="stop-color:#869AFB"/>
		<stop  offset="1" style="stop-color:#617AF8"/>
	</linearGradient>
	<path class="st31" d="M191.4,28.3c-4.2-2.6-10.2-1.6-15.5,1.1c-1-0.7-2-1.3-3.1-1.7c4.6-2.3,9.8-3.4,13.9-1.9
		C188.3,26.4,189.9,27.3,191.4,28.3z"/>
	
		<linearGradient id="SVGID_26_" gradientUnits="userSpaceOnUse" x1="163.3559" y1="390.8497" x2="181.8769" y2="390.8497" gradientTransform="matrix(1 0 0 -1 0 441.8898)">
		<stop  offset="0" style="stop-color:#617AF8"/>
		<stop  offset="1" style="stop-color:#1336BF"/>
	</linearGradient>
	<path class="st32" d="M181.8,37.5c-0.5,0.3-1.1,0.7-1.6,1.1c-7.6,5.2-13.7,16-13.7,24.9c0,4.4,1.5,7.6,3.9,9.3
		c-0.7-0.4-1.6-0.8-2.6-1.4c-2.7-1.5-4.4-4.8-4.4-9.6c0-8.9,6-19.8,13.7-24.9c0.5-0.4,1.1-0.7,1.6-1.1c0.4-0.2,0.6-3.9-2.7-6.4
		C181.7,31.3,182.2,37.2,181.8,37.5z"/>
	
		<linearGradient id="SVGID_27_" gradientUnits="userSpaceOnUse" x1="166.4956" y1="391.4779" x2="196.8885" y2="391.4779" gradientTransform="matrix(1 0 0 -1 0 441.8898)">
		<stop  offset="0" style="stop-color:#1336BF"/>
		<stop  offset="1" style="stop-color:#0C2C9D"/>
	</linearGradient>
	<path class="st33" d="M196.7,46c-0.2,1.9-0.5,3.8-1,5.7c-0.8,3.4-2.2,6.7-4,9.7c-2.6,4.4-5.9,8.1-9.9,10.4c-0.1,0-0.1,0.1-0.2,0.1
		l-0.1,0.1c-3.4,1.9-6.4,2.5-8.9,1.8h-0.1c-0.7-0.2-1.4-0.5-2-1c-2.4-1.6-3.9-4.8-3.9-9.3c0-9,6-19.8,13.7-24.9
		c0.5-0.4,1.1-0.7,1.6-1.1c0.5-0.3-0.1-6.2-5.9-8.1c5.3-2.6,11.2-3.7,15.4-1.1c0,0,0.1,0,0.1,0.1l0,0c0,0,0,0,0,0l0,0
		C195.3,30.7,197.6,36.1,196.7,46z"/>
	
		<linearGradient id="SVGID_28_" gradientUnits="userSpaceOnUse" x1="201.5629" y1="354.1568" x2="292.8382" y2="358.517" gradientTransform="matrix(1 0 0 -1 0 441.8898)">
		<stop  offset="0" style="stop-color:#D8D4F2"/>
		<stop  offset="1" style="stop-color:#A8A1D7"/>
	</linearGradient>
	<path class="st34" d="M281.4,117.3c-3,3.7-6.8,6.8-11,9.1c-10.1,5.7-22.9,8.6-35.1,8.6c-10.1,0-19.7-2.2-26.9-6.3l-25.6-15.4
		c-2-1.1-3.9-2.5-5.5-4.1c-9.8-9.5-17.8-24.7-15.8-42.4c0.6-4.6,1.7-9.1,3.4-13.4c1.8-4.6,4.2-8.9,6.9-13
		c-5.7,8.9-3.3,18.7,7.8,25.2l1.9,1.1l10.3,6l16.7,10.2c7.2,4.2,17,6.4,27.2,6.4c12.3,0.1,25.4-2.9,35.5-8.7
		c13.3-7.6,18.2-18,14-26.8C302.8,85.2,288.7,108,281.4,117.3z"/>
	
		<linearGradient id="SVGID_29_" gradientUnits="userSpaceOnUse" x1="157.9004" y1="360.5603" x2="243.4745" y2="349.4952" gradientTransform="matrix(1 0 0 -1 0 441.8898)">
		<stop  offset="0" style="stop-color:#F1EEFF"/>
		<stop  offset="1" style="stop-color:#D8D4F2;stop-opacity:0"/>
	</linearGradient>
	<path class="st35" d="M281.4,117.3c-3,3.7-6.8,6.8-11,9.1c-10.1,5.7-22.9,8.6-35.1,8.6c-10.1,0-19.7-2.2-26.9-6.3l-25.6-15.4
		c-2-1.1-3.9-2.5-5.5-4.1c-9.8-9.5-17.8-24.7-15.8-42.4c0.6-4.6,1.7-9.1,3.4-13.4c1.8-4.6,4.2-8.9,6.9-13
		c-5.7,8.9-3.3,18.7,7.8,25.2l1.9,1.1l10.3,6l16.7,10.2c7.2,4.2,17,6.4,27.2,6.4c12.3,0.1,25.4-2.9,35.5-8.7
		c13.3-7.6,18.2-18,14-26.8C302.8,85.2,288.7,108,281.4,117.3z"/>
	<path class="st36" d="M238.1,100.2l-0.1,21.4c0,1.4-1.1,2.5-2.5,2.5l0,0c-10.1-0.1-19.7-2.2-26.9-6.3l-25.4-15.3
		c-2.4-1.4-4.7-3.2-6.6-5.2c-2.4-2.4-4.5-5.1-6.4-7.9c-2-3.1-3.1-6.7-3-10.4l0.1-14.7c0-1,0.8-1.8,1.8-1.8c0.6,0,1.1,0.3,1.5,0.8
		c1.8,2.7,3.9,5.2,6.2,7.5c2,2,4.2,3.7,6.6,5.1l25.4,15.3c7.2,4.2,16.8,6.3,26.9,6.3l0,0C236.9,97.7,238.1,98.8,238.1,100.2
		C238.1,100.2,238.1,100.2,238.1,100.2z"/>
	<path class="st37" d="M238.1,100.2l-0.1,21c-0.4,0.3-0.9,0.4-1.3,0.4l0,0c-10.1-0.1-19.7-2.2-26.9-6.3L184.4,100
		c-2.4-1.4-4.7-3.2-6.6-5.2c-2.4-2.4-4.5-5.1-6.4-7.9c-2-3.1-3.1-6.7-3-10.4l0.1-13.8c0.8-0.3,1.7,0,2.1,0.7
		c1.8,2.7,3.9,5.2,6.2,7.5c2,2,4.2,3.7,6.6,5.1l25.4,15.3c7.2,4.2,16.8,6.3,26.9,6.3l0,0C236.9,97.7,238.1,98.8,238.1,100.2
		C238.1,100.2,238.1,100.2,238.1,100.2z"/>
	
		<linearGradient id="SVGID_30_" gradientUnits="userSpaceOnUse" x1="201.7971" y1="360.2855" x2="259.0659" y2="419.2968" gradientTransform="matrix(1 0 0 -1 0 441.8898)">
		<stop  offset="0" style="stop-color:#F1EEFF"/>
		<stop  offset="1" style="stop-color:#D8D4F2"/>
	</linearGradient>
	<path class="st38" d="M271.3,80.4c-10.2,5.8-23.2,8.7-35.5,8.7c-10.2-0.1-19.9-2.2-27.2-6.4l-16.7-10.2l-10.3-6l-1.9-1.1
		c-11.1-6.5-13.5-16.2-7.8-25.2c0.2-0.2,0.3-0.4,0.5-0.7c2.6-3.7,6.6-7.3,12-10.4c10.2-5.8,23.2-8.7,35.5-8.6
		c10.2,0.1,19.9,2.2,27.2,6.4L276,44.2c4.5,2.6,7.6,5.9,9.3,9.3c0,0,0,0.1,0,0.1C289.5,62.4,284.6,72.8,271.3,80.4z"/>
	
		<linearGradient id="SVGID_31_" gradientUnits="userSpaceOnUse" x1="247.248" y1="419.1902" x2="215.8513" y2="380.8155" gradientTransform="matrix(1 0 0 -1 0 441.8898)">
		<stop  offset="0" style="stop-color:#F1EEFF"/>
		<stop  offset="1" style="stop-color:#FFFFFF"/>
	</linearGradient>
	<path class="st39" d="M212.5,64.7l-16.2-9.9c-11.2-6.6-9.7-17.8,3.3-25.3l0,0c13-7.4,32.6-8.1,43.8-1.6l16.2,9.9
		c11.2,6.5,9.7,17.8-3.3,25.3l0,0C243.3,70.6,223.7,71.3,212.5,64.7z"/>
	
		<ellipse transform="matrix(0.5047 -0.8633 0.8633 0.5047 51.4976 294.0443)" class="st30" cx="282" cy="102.1" rx="21.1" ry="12.2"/>
	
		<ellipse transform="matrix(0.5047 -0.8633 0.8633 0.5047 51.5251 290.1978)" class="st40" cx="278.7" cy="100.2" rx="23.8" ry="13.7"/>
	
		<linearGradient id="SVGID_32_" gradientUnits="userSpaceOnUse" x1="274.1881" y1="332.4875" x2="282.6998" y2="347.8405" gradientTransform="matrix(0.9948 -2.369615e-03 -2.369615e-03 -0.9948 0.4226 440.5693)">
		<stop  offset="0" style="stop-color:#F1EEFF"/>
		<stop  offset="1" style="stop-color:#C0BBE4"/>
	</linearGradient>
	<path class="st41" d="M266.4,95c5.8-10,15.2-15.4,21-12c5.8,3.4,5.7,14.2-0.1,24.2c-5.8,10-15.2,15.4-21,12
		C260.5,115.9,260.6,105,266.4,95z"/>
	
		<linearGradient id="SVGID_33_" gradientUnits="userSpaceOnUse" x1="235.2501" y1="416.8828" x2="228.3364" y2="392.6728" gradientTransform="matrix(1 0 0 -1 0 441.8898)">
		<stop  offset="0" style="stop-color:#F13892"/>
		<stop  offset="0.93" style="stop-color:#D80976"/>
	</linearGradient>
	<path class="st42" d="M275,87.4v3.7l-3-1.6l-0.2-1.9c0-2.4-0.2-4.7-0.6-7.1c-2.4-12.8-10.3-23.8-21.5-30.3L203,23.2
		c-0.4-0.2-0.8-0.5-1.3-0.7c-3-1.4-6.4-1.9-9.6-1.5H192c-2.1,0.3-4.1,1-5.9,2.1c-0.6,0.3-1.1,0.7-1.7,1.1c-3,2.2-5.2,5.4-6.2,9
		c-1.6,1.3-3.1,2.8-4.5,4.4c0-7.4,4-14.2,10.4-17.9l0.2-0.1c3.7-2.1,8-3,12.2-2.6c2.9,0.3,5.8,1.2,8.4,2.7l2.7,1.6l43.9,25.4
		c11.8,6.8,20,18.5,22.6,31.9C274.8,81.5,275,84.4,275,87.4z"/>
	
		<linearGradient id="SVGID_34_" gradientUnits="userSpaceOnUse" x1="241.604" y1="384.7019" x2="257.6476" y2="353.7147" gradientTransform="matrix(1 0 0 -1 0 441.8898)">
		<stop  offset="0" style="stop-color:#F757A7"/>
		<stop  offset="0.93" style="stop-color:#A0045A"/>
	</linearGradient>
	<path class="st43" d="M285.8,81.1v4.7L275,91.1v-3.7c0-16.7-9-32.2-23.4-40.6L205,19.8c-2.6-1.5-5.4-2.4-8.4-2.7
		c-4.2-0.4-8.5,0.5-12.2,2.6l10.6-6.1c6.4-3.8,14.4-3.8,20.8,0l46.6,26.9C276.9,48.9,285.8,64.4,285.8,81.1z"/>
	
		<linearGradient id="SVGID_35_" gradientUnits="userSpaceOnUse" x1="187.2706" y1="422.1148" x2="183.0067" y2="407.1873" gradientTransform="matrix(1 0 0 -1 0 441.8898)">
		<stop  offset="0" style="stop-color:#BC0768"/>
		<stop  offset="0.93" style="stop-color:#A0045A"/>
	</linearGradient>
	<path class="st44" d="M192,21.1c-1.3,1.7-2.3,3.6-2.9,5.7c-1.6,0.7-3.2,1.5-4.7,2.4c-2.2,1.2-4.2,2.6-6.1,4.2c1-3.6,3.2-6.8,6.2-9
		c0.5-0.4,1.1-0.8,1.7-1.1C187.9,22.2,189.9,21.5,192,21.1z"/>
	
		<linearGradient id="SVGID_36_" gradientUnits="userSpaceOnUse" x1="276.4643" y1="365.6409" x2="295.1498" y2="365.6409" gradientTransform="matrix(1 0 0 -1 0 441.8898)">
		<stop  offset="0" style="stop-color:#869AFB"/>
		<stop  offset="1" style="stop-color:#617AF8"/>
	</linearGradient>
	<path class="st45" d="M295.1,77.3c-4.2-2.7-10.2-1.6-15.5,1.1c-1-0.7-2-1.3-3.1-1.7c4.6-2.3,9.8-3.4,13.9-1.9
		C292,75.5,293.6,76.4,295.1,77.3z"/>
	
		<linearGradient id="SVGID_37_" gradientUnits="userSpaceOnUse" x1="267.0533" y1="341.8396" x2="285.5806" y2="341.8396" gradientTransform="matrix(1 0 0 -1 0 441.8898)">
		<stop  offset="0" style="stop-color:#617AF8"/>
		<stop  offset="1" style="stop-color:#1336BF"/>
	</linearGradient>
	<path class="st46" d="M285.4,86.5c-0.5,0.3-1.1,0.7-1.6,1.1c-7.6,5.2-13.7,16-13.7,24.9c0,4.4,1.5,7.6,3.9,9.3
		c-0.7-0.4-1.6-0.8-2.6-1.4c-2.7-1.5-4.4-4.8-4.4-9.6c0-8.9,6-19.8,13.7-24.9c0.5-0.4,1.1-0.7,1.6-1.1c0.4-0.2,0.6-3.9-2.7-6.4
		C285.4,80.4,285.9,86.3,285.4,86.5z"/>
	
		<linearGradient id="SVGID_38_" gradientUnits="userSpaceOnUse" x1="270.201" y1="342.3921" x2="300.594" y2="342.3921" gradientTransform="matrix(1 0 0 -1 0 441.8898)">
		<stop  offset="0" style="stop-color:#1336BF"/>
		<stop  offset="1" style="stop-color:#0C2C9D"/>
	</linearGradient>
	<path class="st47" d="M300.4,95c-0.2,1.9-0.5,3.8-1,5.7c-0.8,3.4-2.2,6.7-4,9.7c-2.6,4.4-5.9,8.1-9.9,10.4c-0.1,0-0.1,0.1-0.2,0.1
		l-0.1,0.1c-3.4,1.9-6.4,2.5-8.9,1.8c0,0-0.1,0-0.1,0c-0.7-0.2-1.4-0.5-2-1c-2.4-1.7-3.9-4.8-3.9-9.3c0-8.9,6-19.8,13.7-24.9
		c0.5-0.4,1.1-0.7,1.6-1.1s-0.1-6.2-5.9-8.1c5.3-2.6,11.2-3.7,15.4-1.1c0,0,0.1,0,0.1,0.1l0,0c0,0,0,0,0,0l0,0
		C299,79.8,301.3,85.2,300.4,95z"/>
	
		<ellipse transform="matrix(0.5047 -0.8633 0.8633 0.5047 50.7851 298.6237)" class="st30" cx="285.6" cy="105.1" rx="16.8" ry="9.7"/>
	
		<linearGradient id="SVGID_39_" gradientUnits="userSpaceOnUse" x1="293.3426" y1="348.7705" x2="277.845" y2="326.568" gradientTransform="matrix(1 0 0 -1 0 441.8898)">
		<stop  offset="0" style="stop-color:#D8D4F2"/>
		<stop  offset="1" style="stop-color:#A8A1D7"/>
	</linearGradient>
	<path class="st48" d="M297.8,94c-1.1-0.8-2.3-1.5-3.5-2.1c-2-1-4.7-0.8-7.6,0.9c-6.2,3.5-11.1,12.2-11.1,19.2
		c0,3.5,1.2,5.9,3.1,7.1s4.1,2.2,4.1,2.2L297.8,94z"/>
	
		<linearGradient id="SVGID_40_" gradientUnits="userSpaceOnUse" x1="278.2383" y1="334.6497" x2="300.5326" y2="334.6497" gradientTransform="matrix(1 0 0 -1 -1.018135e-03 441.8934)">
		<stop  offset="0" style="stop-color:#F1EEFF"/>
		<stop  offset="1" style="stop-color:#D8D4F2"/>
	</linearGradient>
	<path class="st49" d="M281.6,102.7c4.4-7.5,11.4-11.5,15.8-9c4.3,2.5,4.3,10.7-0.1,18.1s-11.4,11.5-15.8,9
		C277.1,118.3,277.2,110.2,281.6,102.7z"/>
	
		<linearGradient id="SVGID_41_" gradientUnits="userSpaceOnUse" x1="282.5139" y1="334.6453" x2="296.2419" y2="334.6453" gradientTransform="matrix(1 0 0 -1 0 441.8898)">
		<stop  offset="0" style="stop-color:#D8D4F2"/>
		<stop  offset="1" style="stop-color:#A8A1D7"/>
	</linearGradient>
	<path class="st50" d="M296.2,103.3c0,4.4-3.1,9.6-6.9,11.8c-2.2,1.3-4.2,1.2-5.5,0c-1-1.1-1.5-2.5-1.4-4c0-4.4,3.1-9.6,6.9-11.8
		c1.2-0.8,2.7-1.1,4.2-0.8C295.2,99.1,296.2,100.7,296.2,103.3z"/>
	<path class="st13" d="M294.9,102.5c0,4.4-3.1,9.6-6.9,11.8c-1.2,0.8-2.7,1.1-4.2,0.8c-1-1.1-1.5-2.5-1.4-4c0-4.4,3.1-9.6,6.9-11.8
		c1.2-0.8,2.7-1.1,4.2-0.8C294.5,99.6,295,101.1,294.9,102.5z"/>
	
		<linearGradient id="SVGID_42_" gradientUnits="userSpaceOnUse" x1="217.2523" y1="414.9875" x2="238.7401" y2="414.9875" gradientTransform="matrix(1 0 0 -1 0 441.8898)">
		<stop  offset="0" style="stop-color:#FC77BD"/>
		<stop  offset="1" style="stop-color:#FC77BD;stop-opacity:0"/>
	</linearGradient>
	<polygon class="st51" points="238.7,26.8 227.9,33.1 222.6,30 217.3,27 228.1,20.7 233.4,23.8 	"/>
	
		<linearGradient id="SVGID_43_" gradientUnits="userSpaceOnUse" x1="222.576" y1="411.908" x2="244.08" y2="411.908" gradientTransform="matrix(1 0 0 -1 0 441.8898)">
		<stop  offset="0" style="stop-color:#FC77BD"/>
		<stop  offset="1" style="stop-color:#FC77BD;stop-opacity:0"/>
	</linearGradient>
	<polygon class="st52" points="244.1,29.9 233.2,36.2 227.9,33.1 222.6,30 233.4,23.8 238.7,26.8 	"/>
	
		<linearGradient id="SVGID_44_" gradientUnits="userSpaceOnUse" x1="236.9976" y1="405.4159" x2="252.1098" y2="405.4159" gradientTransform="matrix(1 0 0 -1 0 441.8898)">
		<stop  offset="0" style="stop-color:#FC77BD"/>
		<stop  offset="1" style="stop-color:#FC77BD;stop-opacity:0"/>
	</linearGradient>
	<polygon class="st53" points="252.1,34.6 241.3,40.8 237,38.4 247.8,32.1 	"/>
	
		<linearGradient id="SVGID_45_" gradientUnits="userSpaceOnUse" x1="250.2067" y1="398.0927" x2="264.1787" y2="398.0927" gradientTransform="matrix(1 0 0 -1 0 441.8898)">
		<stop  offset="0" style="stop-color:#FC77BD"/>
		<stop  offset="1" style="stop-color:#FC77BD;stop-opacity:0"/>
	</linearGradient>
	<path class="st54" d="M264.2,41.6l-10.8,6.3c-0.6-0.4-1.2-0.7-1.8-1.1l-1.3-0.8l10.8-6.3l1.3,0.8C263,40.9,263.6,41.2,264.2,41.6z"
		/>
	
		<ellipse transform="matrix(0.8633 -0.5047 0.5047 0.8633 -19.4872 106.2176)" class="st13" cx="186.3" cy="89.1" rx="3.7" ry="6.5"/>
	
		<ellipse transform="matrix(0.8633 -0.5047 0.5047 0.8633 -22.284 118.5625)" class="st13" cx="207.7" cy="100.4" rx="3.7" ry="6.5"/>
	
		<linearGradient id="SVGID_46_" gradientUnits="userSpaceOnUse" x1="177.8002" y1="267.4384" x2="193.6431" y2="233.9619" gradientTransform="matrix(1 0 0 -1 0 441.8898)">
		<stop  offset="0" style="stop-color:#C0BBE4"/>
		<stop  offset="1" style="stop-color:#A8A1D7"/>
	</linearGradient>
	<path class="st55" d="M205.7,201.7c0-11.2-7.9-24.8-17.7-30.4c-3.5-2-6.7-2.7-9.5-2.3c-2.7,0.4-6.8,2.5-6.8,2.5s-1.3,6.5-1.3,9.8
		c0,5.6,2,11.8,5.2,17.3c1.4,2.4-1.4,6.8-1.4,6.8c1,1.1,8.2,2.1,9.3,3c1.4,1.3,2.9,2.4,4.6,3.3c2.6,1.5,6.7,3.4,6.7,3.4s5.3-1.5,7-3
		C204.3,210.1,205.7,206.5,205.7,201.7z"/>
	
		<linearGradient id="SVGID_47_" gradientUnits="userSpaceOnUse" x1="234.4289" y1="574.4664" x2="275.1804" y2="574.4664" gradientTransform="matrix(0.87 0.5 0 -1.15 -35.9099 727.3829)">
		<stop  offset="0" style="stop-color:#F1EEFF"/>
		<stop  offset="1" style="stop-color:#FFFFFF"/>
	</linearGradient>
	<path class="st56" d="M202.4,202.9c0-11.2-7.9-24.8-17.7-30.4s-17.7-1.1-17.7,10.1c0,5.6,2,11.8,5.2,17.3c1.4,2.4-1.4,6.8-1.4,6.8
		c1,1.1,8.2,2.1,9.3,3c1.4,1.3,2.9,2.4,4.6,3.3C194.5,218.6,202.4,214.1,202.4,202.9z"/>
	
		<linearGradient id="SVGID_48_" gradientUnits="userSpaceOnUse" x1="178.0381" y1="259.7082" x2="191.6327" y2="233.6995" gradientTransform="matrix(1 0 0 -1 0 441.8898)">
		<stop  offset="0" style="stop-color:#C0BBE4"/>
		<stop  offset="1" style="stop-color:#A8A1D7"/>
	</linearGradient>
	<path class="st57" d="M200.2,202.1c0,5.1-1.9,8.6-5,10l0,0c-2.7,1.3-6.3,0.9-10.2-1.4c-1.4-0.8-2.7-1.8-3.9-2.9
		c-0.2-0.2-0.5-0.4-0.8-0.6c-1-0.6-2.4-0.9-4.8-1.5l-0.3-0.1c0.6-2.1,0.2-4.4-0.9-6.2c-2.9-5-4.5-10.3-4.5-14.9
		c0-6.1,2.7-9.9,6.9-10.6c2.4-0.4,5.3,0.2,8.3,1.9C193.4,180.7,200.2,192.4,200.2,202.1z"/>
	
		<linearGradient id="SVGID_49_" gradientUnits="userSpaceOnUse" x1="171.7471" y1="248.8861" x2="200.2209" y2="248.8861" gradientTransform="matrix(1 0 0 -1 0 441.8898)">
		<stop  offset="0" style="stop-color:#1B41E0"/>
		<stop  offset="1" style="stop-color:#1336BF"/>
	</linearGradient>
	<path class="st58" d="M200.2,202.1c0,5.1-1.9,8.6-5,10l0,0c-2.4,0.4-5.2-0.2-8.3-2c-1.4-0.8-2.7-1.8-3.9-2.9
		c-0.3-0.2-0.5-0.4-0.8-0.6c-1.5-0.7-3.2-1.2-4.8-1.5l-0.3-0.1c0.6-2.1,0.2-4.4-0.9-6.3c-2.9-4.9-4.5-10.3-4.5-14.9
		c0-5.1,1.9-8.6,4.9-10c2.4-0.4,5.3,0.2,8.3,1.9C193.4,180.7,200.2,192.4,200.2,202.1z"/>
	
		<ellipse transform="matrix(0.8633 -0.5047 0.5047 0.8633 -70.9026 114.6738)" class="st59" cx="176.2" cy="188.2" rx="2.1" ry="3.6"/>
	
		<ellipse transform="matrix(0.8633 -0.5047 0.5047 0.8633 -72.2604 119.8017)" class="st59" cx="185" cy="193.3" rx="2.1" ry="3.6"/>
	
		<ellipse transform="matrix(0.8633 -0.5047 0.5047 0.8633 -73.6194 124.9284)" class="st59" cx="193.8" cy="198.4" rx="2.1" ry="3.6"/>
	<path class="st60" d="M319.7,430.7l13.7-7.1c1.7-0.9,2.3-2.9,1.4-4.5c-0.3-0.6-0.7-1-1.3-1.4L89.8,277c-3.1-1.8-6.9-1.9-10.1-0.3
		l-14,7c-1.7,0.8-2.3,2.9-1.5,4.5c0.3,0.6,0.8,1.1,1.3,1.4l5.9,3.4l-12.3,6.5h23.3l227,130.9C312.7,432.3,316.5,432.4,319.7,430.7z"
		/>
</g>
</svg>
