<?xml version="1.0" encoding="utf-8"?>
<!-- Generator: Adobe Illustrator 14.0.0, SVG Export Plug-In . SVG Version: 6.00 Build 43363)  -->
<!DOCTYPE svg PUBLIC "-//W3C//DTD SVG 1.1//EN" "http://www.w3.org/Graphics/SVG/1.1/DTD/svg11.dtd">
<svg version="1.1" xmlns="http://www.w3.org/2000/svg" xmlns:xlink="http://www.w3.org/1999/xlink" x="0px" y="0px" width="16px"
	 height="16px" viewBox="0 0 16 16" enable-background="new 0 0 16 16" xml:space="preserve">
<g id="Layer_1">
	<g>
		<path fill-rule="evenodd" clip-rule="evenodd" fill="#FFFFFF" d="M7.12,10.347c0-2.083,2.114-3.776,4.715-3.776
			c0.688,0,1.34,0.12,1.932,0.333c0-0.029,0.002-0.059,0.002-0.088c0-2.945-3.083-5.332-6.883-5.332C3.083,1.483,0,3.87,0,6.814
			c0,1.838,1.19,3.459,3.027,4.418v3.063l2.292-2.29c0.502,0.09,1.027,0.14,1.564,0.14c0.265,0,0.526-0.012,0.782-0.036
			C7.317,11.583,7.12,10.982,7.12,10.347"/>
		<path fill-rule="evenodd" clip-rule="evenodd" fill="#FFFFFF" d="M11.835,7.12C14.136,7.12,16,8.564,16,10.347
			c0,1.114-0.728,2.095-1.832,2.675v1.854l-1.386-1.386c-0.306,0.054-0.62,0.084-0.947,0.084c-2.301,0-4.165-1.445-4.165-3.227
			C7.67,8.564,9.534,7.12,11.835,7.12"/>
	</g>
</g>
<g id="Layer_2">
</g>
</svg>
