<?xml version="1.0" encoding="utf-8"?>
<!-- Generator: Adobe Illustrator 24.2.0, SVG Export Plug-In . SVG Version: 6.00 Build 0)  -->
<svg version="1.1" id="Layer_1" xmlns="http://www.w3.org/2000/svg" xmlns:xlink="http://www.w3.org/1999/xlink" x="0px" y="0px"
	 viewBox="0 0 350 150" style="enable-background:new 0 0 350 150;" xml:space="preserve">
<style type="text/css">
	.st0{fill:url(#SVGID_1_);}
	.st1{fill:url(#SVGID_2_);}
	.st2{fill:url(#SVGID_3_);}
	.st3{fill:#BC0768;}
	.st4{opacity:0.3;}
	.st5{fill:url(#SVGID_4_);}
	.st6{fill:url(#SVGID_5_);}
	.st7{opacity:0.6;fill:url(#SVGID_6_);enable-background:new    ;}
	.st8{fill:url(#SVGID_7_);}
	.st9{fill:url(#SVGID_8_);}
	.st10{fill:url(#SVGID_9_);}
	.st11{fill:url(#SVGID_10_);}
	.st12{fill:url(#SVGID_11_);}
	.st13{fill:#EC187C;}
	.st14{fill:url(#SVGID_12_);}
	.st15{fill:url(#SVGID_13_);}
	.st16{fill:url(#SVGID_14_);}
	.st17{opacity:0.5;fill:url(#SVGID_15_);enable-background:new    ;}
	.st18{opacity:0.5;fill:#BC0768;enable-background:new    ;}
	.st19{fill:#FC77BD;}
	.st20{opacity:0.7;fill:#BC0768;enable-background:new    ;}
	.st21{fill:url(#SVGID_16_);}
	.st22{fill:url(#SVGID_17_);}
	.st23{fill:url(#SVGID_18_);}
	.st24{fill:url(#SVGID_19_);}
	.st25{fill:url(#SVGID_20_);}
	.st26{fill:url(#SVGID_21_);}
	.st27{fill:url(#SVGID_22_);}
	.st28{fill:url(#SVGID_23_);}
	.st29{fill:url(#SVGID_24_);}
	.st30{fill:#04217C;}
	.st31{fill:url(#SVGID_25_);}
	.st32{fill:url(#SVGID_26_);}
	.st33{fill:url(#SVGID_27_);}
	.st34{fill:url(#SVGID_28_);}
	.st35{opacity:0.5;fill:url(#SVGID_29_);enable-background:new    ;}
	.st36{fill:#F1EEFF;}
	.st37{fill:#0C2C9D;}
	.st38{fill:url(#SVGID_30_);}
	.st39{fill:url(#SVGID_31_);}
	.st40{fill:#8F87C9;}
	.st41{fill:url(#SVGID_32_);}
	.st42{fill:url(#SVGID_33_);}
	.st43{fill:url(#SVGID_34_);}
	.st44{fill:url(#SVGID_35_);}
	.st45{fill:url(#SVGID_36_);}
	.st46{fill:url(#SVGID_37_);}
	.st47{fill:url(#SVGID_38_);}
	.st48{fill:url(#SVGID_39_);}
	.st49{fill:url(#SVGID_40_);}
	.st50{fill:url(#SVGID_41_);}
	.st51{fill:url(#SVGID_42_);}
	.st52{fill:url(#SVGID_43_);}
	.st53{fill:url(#SVGID_44_);}
	.st54{fill:url(#SVGID_45_);}
	.st55{fill:url(#SVGID_46_);}
	.st56{fill:url(#SVGID_47_);}
	.st57{fill:url(#SVGID_48_);}
	.st58{fill:url(#SVGID_49_);}
	.st59{fill:#F13892;}
	.st60{opacity:0.3;fill:#382074;enable-background:new    ;}
	.st61{fill:#231F20;}
	.st62{fill:#3C59F4;}
</style>
<g>
	
		<linearGradient id="SVGID_1_" gradientUnits="userSpaceOnUse" x1="65.5155" y1="455.2935" x2="62.6876" y2="467.886" gradientTransform="matrix(1 0 0 1 0 -400)">
		<stop  offset="0" style="stop-color:#FC77BD"/>
		<stop  offset="1" style="stop-color:#A0045A"/>
	</linearGradient>
	<path class="st0" d="M83.3,115.7L28.4,83.3L28,83c-0.8-0.5-2.1-0.4-3.3,0.2l-5.4,2.7l-2.9-0.5l4.9-6.1c-1.4-0.8-1.9-2.4-1.4-4.2
		L34.6,30c0,0,1.2,0.2,3.5,0.6c0.5,0.1,0.9,0.2,1.3,0.5l61.4,35.3c2.6,1.5,3.7,5.8,2.5,9.5l-11.3,35.7c-0.8,2.5-2.4,4.1-4.1,4.5
		C87,116.4,83.3,115.7,83.3,115.7z"/>
	
		<linearGradient id="SVGID_2_" gradientUnits="userSpaceOnUse" x1="249.5197" y1="-258.0754" x2="319.2934" y2="-260.2651" gradientTransform="matrix(0.86 0.49 -0.39 1.24 -296.9046 251.4576)">
		<stop  offset="0" style="stop-color:#F13892"/>
		<stop  offset="1" style="stop-color:#D80976"/>
	</linearGradient>
	<path class="st1" d="M82.2,115.2L25.5,82.7l-0.5-0.3c-0.8-0.5-2.1-0.4-3.3,0.2l-5.4,2.7l2-6.7c-1.4-0.8-1.9-2.4-1.4-4.2l12.6-39.7
		c1.2-3.8,4.3-5.6,6.9-4.1l61.4,35.2c2.6,1.5,3.7,5.8,2.5,9.5L89,111.1C87.8,114.9,84.8,116.7,82.2,115.2z"/>
	
		<linearGradient id="SVGID_3_" gradientUnits="userSpaceOnUse" x1="16.4115" y1="472.8965" x2="100.8927" y2="472.8965" gradientTransform="matrix(1 0 0 1 0 -400)">
		<stop  offset="0" style="stop-color:#FC77BD;stop-opacity:0"/>
		<stop  offset="1" style="stop-color:#FC77BD"/>
	</linearGradient>
	<path class="st2" d="M34.6,30v0.4c0.6,0,1.2,0.2,1.7,0.5l61.4,35.3c2.4,1.4,3.5,5.5,2.4,9.1L88.7,111c-0.8,2.6-2.7,4.4-4.6,4.4
		c-0.6,0-1.2-0.2-1.7-0.5L25.7,82.4l-0.5-0.3c-0.5-0.2-1-0.4-1.5-0.4c-0.7,0-1.5,0.2-2.1,0.5L17,84.5l1.8-5.8c0.1-0.2,0-0.4-0.2-0.5
		c-1.3-0.7-1.7-2.1-1.2-3.8L30,34.8c0.8-2.6,2.7-4.4,4.6-4.4L34.6,30 M34.6,30c-2.1,0-4.1,1.8-5,4.7L17,74.4c-0.6,1.8,0,3.4,1.4,4.2
		l-2,6.7l5.4-2.7c0.6-0.3,1.3-0.5,1.9-0.5c0.5,0,0.9,0.1,1.3,0.3l0.5,0.3l56.6,32.5c0.6,0.3,1.2,0.5,1.9,0.5c2.1,0,4.1-1.8,5-4.7
		l11.3-35.8c1.2-3.8,0.1-8-2.5-9.5L36.5,30.6C35.9,30.2,35.3,30,34.6,30L34.6,30z"/>
	<path class="st3" d="M46.8,51.5l-13-7.5c-0.2-0.1-0.4-0.6-0.2-1l0.8-2.5c0.1-0.4,0.4-0.5,0.7-0.4l13,7.5c0.2,0.1,0.4,0.6,0.2,1
		l-0.8,2.5C47.4,51.5,47.1,51.7,46.8,51.5z"/>
	<path class="st3" d="M38.2,56.3l-7-4c-0.2-0.1-0.4-0.6-0.2-1l0.8-2.5c0.1-0.4,0.4-0.5,0.7-0.4l7,4c0.2,0.1,0.4,0.6,0.2,1l-0.8,2.5
		C38.7,56.3,38.4,56.5,38.2,56.3z"/>
	<path class="st3" d="M40,64.3l-10.7-6.1c-0.2-0.1-0.4-0.6-0.2-1l0.8-2.5c0.1-0.4,0.4-0.5,0.7-0.4l10.7,6.1c0.2,0.1,0.4,0.6,0.2,1
		l-0.8,2.5C40.6,64.3,40.3,64.5,40,64.3z"/>
	<path class="st3" d="M38.1,70.2l-10.7-6.1c-0.2-0.1-0.4-0.6-0.2-1l0.8-2.5c0.1-0.4,0.4-0.5,0.7-0.4l10.7,6.1c0.2,0.1,0.4,0.6,0.2,1
		l-0.8,2.5C38.7,70.2,38.4,70.4,38.1,70.2z"/>
	<path class="st3" d="M59.5,68.6l-19-10.9c-0.2-0.1-0.4-0.6-0.2-1l0.8-2.5c0.1-0.4,0.4-0.5,0.7-0.4l19,10.9c0.2,0.1,0.4,0.6,0.2,1
		l-0.8,2.5C60.1,68.6,59.8,68.7,59.5,68.6z"/>
	<path class="st3" d="M53.5,72.1l-11.2-6.4c-0.2-0.1-0.4-0.6-0.2-1l0.8-2.5c0.1-0.4,0.4-0.6,0.7-0.4l11.2,6.4c0.2,0.1,0.4,0.6,0.2,1
		l-0.8,2.5C54.1,72.1,53.8,72.2,53.5,72.1z"/>
	<path class="st3" d="M74.9,77.4l-13-7.5c-0.2-0.1-0.4-0.6-0.2-1l0.8-2.5c0.1-0.4,0.4-0.5,0.7-0.4l13,7.5c0.2,0.1,0.4,0.6,0.2,1
		L75.6,77C75.4,77.4,75.1,77.6,74.9,77.4z"/>
	<path class="st3" d="M68.2,80.5l-12.4-7.1c-0.2-0.1-0.4-0.6-0.2-1l0.8-2.5c0.1-0.4,0.4-0.6,0.7-0.4l12.4,7.1c0.2,0.1,0.4,0.6,0.2,1
		l-0.8,2.5C68.8,80.5,68.5,80.7,68.2,80.5z"/>
	<path class="st3" d="M90.2,86.2l-13-7.5c-0.2-0.1-0.4-0.6-0.2-1l0.8-2.5c0.1-0.4,0.4-0.6,0.7-0.4l13,7.5c0.2,0.1,0.4,0.6,0.2,1
		l-0.8,2.5C90.8,86.2,90.5,86.4,90.2,86.2z"/>
	<path class="st3" d="M84.3,89.8l-13.7-7.9c-0.2-0.1-0.4-0.6-0.2-1l0.8-2.5c0.1-0.4,0.4-0.6,0.7-0.4l13.7,7.9c0.2,0.1,0.4,0.6,0.2,1
		L85,89.3C84.8,89.7,84.5,89.9,84.3,89.8z"/>
	<path class="st3" d="M37.6,80.6l-13-7.5c-0.2-0.1-0.4-0.6-0.2-1l0.8-2.5c0.1-0.4,0.4-0.6,0.7-0.4l13,7.5c0.2,0.1,0.4,0.6,0.2,1
		l-0.8,2.5C38.1,80.6,37.8,80.8,37.6,80.6z"/>
	<g class="st4">
		
			<linearGradient id="SVGID_4_" gradientUnits="userSpaceOnUse" x1="30.7971" y1="472.4717" x2="84.083" y2="472.4717" gradientTransform="matrix(1 0 0 1 0 -400)">
			<stop  offset="0" style="stop-color:#FFFFFF"/>
			<stop  offset="0.93" style="stop-color:#FFFFFF;stop-opacity:0"/>
		</linearGradient>
		<polygon class="st5" points="91.8,62.3 47.4,95.3 25.5,82.7 25.4,82.6 69.8,49.7 		"/>
		
			<linearGradient id="SVGID_5_" gradientUnits="userSpaceOnUse" x1="54.5912" y1="483.2289" x2="94.992" y2="483.2289" gradientTransform="matrix(1 0 0 1 0 -400)">
			<stop  offset="0" style="stop-color:#FFFFFF"/>
			<stop  offset="0.93" style="stop-color:#FFFFFF;stop-opacity:0"/>
		</linearGradient>
		<path class="st6" d="M100.9,71.9l-41.1,30.4L50.5,97l44.4-32.9l3,1.7C99.7,66.8,100.8,69.3,100.9,71.9z"/>
	</g>
	
		<linearGradient id="SVGID_6_" gradientUnits="userSpaceOnUse" x1="68.3141" y1="464.7032" x2="75.7438" y2="455.4536" gradientTransform="matrix(1 0 0 1 0 -400)">
		<stop  offset="0" style="stop-color:#A0045A"/>
		<stop  offset="0.14" style="stop-color:#A0045A;stop-opacity:0.91"/>
		<stop  offset="0.4" style="stop-color:#A0045A;stop-opacity:0.66"/>
		<stop  offset="0.77" style="stop-color:#A0045A;stop-opacity:0.27"/>
		<stop  offset="1" style="stop-color:#A0045A;stop-opacity:0"/>
	</linearGradient>
	<polygon class="st7" points="87.6,57.6 74,77 67.2,46.9 67.6,46.1 	"/>
	
		<linearGradient id="SVGID_7_" gradientUnits="userSpaceOnUse" x1="41.9408" y1="452.2721" x2="48.5597" y2="452.2721" gradientTransform="matrix(1 0 0 1 -6.927490e-03 -399.9991)">
		<stop  offset="0" style="stop-color:#D8D4F2"/>
		<stop  offset="1" style="stop-color:#A8A1D7"/>
	</linearGradient>
	<path class="st8" d="M42.9,50.9c1.3-2.2,3.4-3.4,4.7-2.7c1.3,0.7,1.3,3.2,0,5.4c-1.3,2.2-3.4,3.4-4.7,2.7
		C41.6,55.5,41.6,53.2,42.9,50.9z"/>
	
		<linearGradient id="SVGID_8_" gradientUnits="userSpaceOnUse" x1="32.5218" y1="444.6445" x2="46.0158" y2="444.6445" gradientTransform="matrix(1 0 0 1 0 -400)">
		<stop  offset="0" style="stop-color:#F1EEFF"/>
		<stop  offset="1" style="stop-color:#D8D4F2"/>
	</linearGradient>
	<path class="st9" d="M43.5,55.6c-0.2,0-0.4,0.1-0.5,0.1c-0.9,0-1.7-0.3-2.5-0.7c-1.6-1-2.8-2.8-3.6-4.7c-0.7-1.5-4.3-11.1-4.4-14.7
		c-0.1-1.8,0.4-2.4,1.5-1.6c0.1,0.1,0.2,0.2,0.4,0.3c0.5,0.4,10.3,10.6,11.6,17.6C46.3,54,45,55.3,43.5,55.6z"/>
	
		<linearGradient id="SVGID_9_" gradientUnits="userSpaceOnUse" x1="33.7259" y1="444.7635" x2="45.997" y2="444.7635" gradientTransform="matrix(1 0 0 1 0 -400)">
		<stop  offset="0" style="stop-color:#D8D4F2"/>
		<stop  offset="1" style="stop-color:#A8A1D7"/>
	</linearGradient>
	<path class="st10" d="M43.5,55.6c-0.6-0.1-1.2-0.4-1.8-0.7c-1.6-1-2.8-2.8-3.6-4.7c-0.7-1.5-4.3-11.1-4.4-14.7c0-0.8,0-1.3,0.2-1.6
		c0.1,0.1,0.2,0.2,0.4,0.3c0.5,0.4,10.3,10.6,11.6,17.6C46.3,54,45,55.3,43.5,55.6z"/>
	
		<linearGradient id="SVGID_10_" gradientUnits="userSpaceOnUse" x1="45.3596" y1="455.5087" x2="50.5012" y2="455.5087" gradientTransform="matrix(0.9948 -2.369615e-03 2.369615e-03 0.9948 -3.915 -400.7945)">
		<stop  offset="0" style="stop-color:#1336BF"/>
		<stop  offset="1" style="stop-color:#0C2C9D"/>
	</linearGradient>
	<path class="st11" d="M43.1,51.2c1-1.7,2.6-2.7,3.6-2.1c1,0.6,1,2.4,0,4.2c-1,1.7-2.6,2.7-3.6,2.1C42.1,54.8,42,52.9,43.1,51.2z"/>
	
		<linearGradient id="SVGID_11_" gradientUnits="userSpaceOnUse" x1="42.6554" y1="449.5049" x2="77.9944" y2="449.5049" gradientTransform="matrix(1 0 0 1 0 -400)">
		<stop  offset="0" style="stop-color:#F1EEFF"/>
		<stop  offset="1" style="stop-color:#D8D4F2"/>
	</linearGradient>
	<path class="st12" d="M78,49.6L78,49.6c0,2.6-1.7,5.2-5.1,7.2c-6.9,4-18.1,4-25-0.1c-0.1-0.1-0.2-0.1-0.2-0.2
		c-2.6-1.6-4.2-3.5-4.7-5.5c-0.1-0.4-0.2-0.8-0.2-1.3c-0.1-0.9,0.1-1.8,0.4-2.7c0.7-1.8,2.3-3.5,4.7-4.9c6.9-4,18.1-4,25,0.1
		c3.2,1.8,4.9,4.2,5.2,6.6v0C78,49.2,78,49.4,78,49.6z"/>
	
		<ellipse transform="matrix(5.410372e-03 -1 1 5.410372e-03 12.5769 107.4895)" class="st13" cx="60.3" cy="47.4" rx="7.6" ry="13.2"/>
	
		<linearGradient id="SVGID_12_" gradientUnits="userSpaceOnUse" x1="47.9041" y1="447.4171" x2="72.762" y2="447.4171" gradientTransform="matrix(1 0 0 1 -2.309059e-03 -399.9951)">
		<stop  offset="0" style="stop-color:#F1EEFF"/>
		<stop  offset="1" style="stop-color:#FFFFFF"/>
	</linearGradient>
	<path class="st14" d="M47.9,47.4c0-3.9,5.6-7.2,12.5-7.1s12.4,3.3,12.4,7.2c0,3.9-5.6,7.2-12.5,7.1C53.4,54.5,47.9,51.3,47.9,47.4z
		"/>
	
		<linearGradient id="SVGID_13_" gradientUnits="userSpaceOnUse" x1="51.6039" y1="447.4034" x2="69.0554" y2="447.4034" gradientTransform="matrix(1 0 0 1 -2.309059e-03 -399.9951)">
		<stop  offset="0" style="stop-color:#1336BF"/>
		<stop  offset="1" style="stop-color:#0C2C9D"/>
	</linearGradient>
	<path class="st15" d="M51.6,47.4c0-2.8,3.9-5,8.7-5c4.8,0,8.7,2.3,8.7,5.1c0,2.8-3.9,5-8.7,5C55.5,52.4,51.6,50.1,51.6,47.4z"/>
	
		<radialGradient id="SVGID_14_" cx="74.5893" cy="-542.3161" r="50.4382" gradientTransform="matrix(0.22 0.98 -0.54 0.12 -265.2624 47.7025)" gradientUnits="userSpaceOnUse">
		<stop  offset="0" style="stop-color:#F1EEFF"/>
		<stop  offset="1" style="stop-color:#A8A1D7"/>
	</radialGradient>
	<path class="st16" d="M78.1,53.7c0,3.4-0.2,6.9-0.7,10.2c-0.1,0.6-0.2,1.2-0.2,1.8l0,0c-0.1,0.8-0.3,1.6-0.4,2.4l0,0
		c-0.1,0.7-0.3,1.3-0.4,1.9l0,0c-2.9,12.4-8.9,20.7-15.9,20.7c-1.3,0-2.6-0.3-3.8-0.9c-1.5-0.7-3-1.9-4.4-3.5
		c-0.3-0.4-0.6-0.7-0.9-1.1l0,0c-1.1-1.5-2.1-3.1-2.9-4.7l0,0c-0.1-0.2-0.2-0.4-0.3-0.6l-0.1-0.1l-0.2-0.5c0,0,0,0,0-0.1
		c-2.6-5.7-4.4-13.2-5-21.3c-0.1-1.9-0.2-3.8-0.2-5.7c0-0.8,0-1.6,0-2.4c0,0.4,0.1,0.8,0.2,1.3c0.5,2,2.1,3.9,4.7,5.5
		c0.1,0.1,0.2,0.1,0.2,0.2c1,0.6,2.1,1.1,3.2,1.5c4.3,1.5,9.5,1.9,14.1,1.2c2.8-0.4,5.4-1.3,7.6-2.6c3.4-2,5.1-4.6,5.1-7.2
		C78.1,50.9,78.1,52.3,78.1,53.7z"/>
	
		<linearGradient id="SVGID_15_" gradientUnits="userSpaceOnUse" x1="42.8072" y1="470.9893" x2="57.7435" y2="468.4893" gradientTransform="matrix(1 0 0 1 0 -400)">
		<stop  offset="0" style="stop-color:#F1EEFF"/>
		<stop  offset="1" style="stop-color:#D8D4F2"/>
	</linearGradient>
	<path class="st17" d="M65.2,59.3c-0.1,1.4-0.2,2.8-0.4,4.2c-0.1,0.7-0.2,1.4-0.2,2.1l0,0c-0.1,1-0.3,1.9-0.4,2.8l0,0
		c-0.1,0.8-0.3,1.6-0.4,2.3l0,0c-1.5,8.1-4,14.7-7.1,19.1c-1.5-0.7-3-1.9-4.4-3.5c-0.3-0.4-0.6-0.7-0.9-1.1l0,0
		c-1.1-1.5-2.1-3.1-2.9-4.7l0,0c-0.1-0.2-0.2-0.4-0.3-0.6l-0.1-0.1c-0.1-0.2-0.2-0.4-0.2-0.5c0,0,0-0.1,0-0.1
		c-2.6-5.7-4.4-13.2-5-21.3c-0.1-1.9-0.2-3.8-0.2-5.7c0-0.8,0-1.6,0-2.4c0,0.4,0.1,0.8,0.2,1.3c0.4,1.4,1.3,2.8,2.7,4
		c0.6,0.5,1.3,1,2,1.5l0.1,0.1l0.2,0.1c0.4,0.2,0.7,0.4,1.1,0.6c0.7,0.3,1.4,0.6,2.1,0.9h0c0.7,0.2,1.4,0.5,2.1,0.7
		c0.7,0.2,1.4,0.3,2.1,0.5C58.6,59.8,62,59.9,65.2,59.3z"/>
	<path class="st18" d="M76.5,69.2c-2.8,12.9-8.9,21.6-16.1,21.6c-3.2,0-6.1-1.8-8.7-5c0.8,0.2,1.6,0.4,2.4,0.4
		C59.9,86.1,69.6,79.1,76.5,69.2z"/>
	<path class="st19" d="M77.4,64c-0.1,0.6-0.2,1.2-0.2,1.8l0,0c0.1,0.8-0.1,1.6-0.4,2.4l0,0c-0.1,0.3-0.3,0.6-0.5,0.9
		C71.1,76.9,65,82.3,58.2,85.1c-2.8,1.2-5.1,1.2-6.8,0.2l0,0c-0.2-0.1-0.4-0.3-0.6-0.4c-1.5-1.2-2.1-3.1-2.3-4.3l0,0
		c-0.1-0.2-0.2-0.4-0.3-0.6l-0.1-0.1c-0.1-0.2-0.2-0.4-0.2-0.5c0,0,0-0.1,0-0.1c0,0.1-0.1,0.1-0.1,0.2c-0.2,0.8,0.3,4.1,2.6,5.9
		c0.6,0.5,1.2,0.8,1.9,1c0.6,0.2,1.3,0.3,1.9,0.3c1.3,0,2.7-0.3,4.2-1c6.7-2.8,12.8-8,17.9-15.6l0,0c0.2-0.2,0.3-0.4,0.5-0.7
		C77.9,67.8,78.1,65.8,77.4,64z"/>
	<path class="st20" d="M51.4,85.2c-0.2-0.1-0.4-0.3-0.6-0.4c-1.5-1.2-2.1-3.1-2.3-4.3C49.3,82.2,50.3,83.7,51.4,85.2z"/>
	
		<linearGradient id="SVGID_16_" gradientUnits="userSpaceOnUse" x1="70.1018" y1="461.2817" x2="76.7163" y2="461.2817" gradientTransform="matrix(1 0 0 1 -4.044784e-03 -399.9919)">
		<stop  offset="0" style="stop-color:#D8D4F2"/>
		<stop  offset="1" style="stop-color:#A8A1D7"/>
	</linearGradient>
	<path class="st21" d="M71.1,59.9c1.3-2.2,3.4-3.4,4.7-2.7c1.3,0.7,1.3,3.2,0,5.4c-1.3,2.2-3.4,3.4-4.7,2.7
		C69.8,64.6,69.8,62.2,71.1,59.9z"/>
	
		<linearGradient id="SVGID_17_" gradientUnits="userSpaceOnUse" x1="75.8084" y1="458.6347" x2="70.9914" y2="463.916" gradientTransform="matrix(1 0 0 1 -4.044784e-03 -399.9919)">
		<stop  offset="0" style="stop-color:#1336BF"/>
		<stop  offset="1" style="stop-color:#0C2C9D"/>
	</linearGradient>
	<path class="st22" d="M71.6,60.2c1-1.7,2.6-2.7,3.6-2.1c1,0.6,1,2.5,0,4.2c-1,1.7-2.6,2.7-3.6,2.1C70.6,63.9,70.6,62,71.6,60.2z"/>
	
		<linearGradient id="SVGID_18_" gradientUnits="userSpaceOnUse" x1="65.4578" y1="468.081" x2="80.3246" y2="468.081" gradientTransform="matrix(1 0 0 1 0 -400)">
		<stop  offset="0" style="stop-color:#F1EEFF"/>
		<stop  offset="1" style="stop-color:#D8D4F2"/>
	</linearGradient>
	<path class="st23" d="M80.3,61.3c0,3.4-3.2,6.7-5.4,9.3c-3.2,3.8-5.7,6.3-7.3,7.4c-2.2,1.5-2.8,0.5-1.3-3.5c0.4-1,0.8-2.1,1.5-3.5
		c0.5-1.1,4.2-11.2,7.2-12.9c2.1-1.2,3.9-0.9,4.8,0.6C80.1,59.5,80.4,60.4,80.3,61.3z"/>
	
		<linearGradient id="SVGID_19_" gradientUnits="userSpaceOnUse" x1="79.3331" y1="459.7867" x2="67.1433" y2="478.7282" gradientTransform="matrix(1 0 0 1 0 -400)">
		<stop  offset="0" style="stop-color:#F1EEFF"/>
		<stop  offset="1" style="stop-color:#FFFFFF"/>
	</linearGradient>
	<path class="st24" d="M80.3,61.3c0,3.4-3.2,6.7-5.4,9.3c-3.2,3.8-5.7,6.3-7.3,7.4c0.2-0.7,0.4-1.5,0.7-2.2c0.4-1,0.8-2.1,1.5-3.5
		c0.5-1.1,4.2-11.2,7.2-12.9c1-0.6,2-0.8,2.8-0.7C80.1,59.5,80.3,60.4,80.3,61.3z"/>
	
		<linearGradient id="SVGID_20_" gradientUnits="userSpaceOnUse" x1="56.5413" y1="454.4811" x2="51.5369" y2="474.1951" gradientTransform="matrix(1 0 0 1 0 -400)">
		<stop  offset="0" style="stop-color:#F1EEFF"/>
		<stop  offset="1" style="stop-color:#F1EEFF;stop-opacity:0"/>
	</linearGradient>
	<path class="st25" d="M55.3,59.3l-0.1,18.3l-2.1-1.2L51,75.1l0.1-16.9c0.7,0.2,1.4,0.5,2.1,0.7C53.9,59,54.6,59.2,55.3,59.3z"/>
	
		<linearGradient id="SVGID_21_" gradientUnits="userSpaceOnUse" x1="54.3139" y1="453.916" x2="49.3095" y2="473.6278" gradientTransform="matrix(1 0 0 1 0 -400)">
		<stop  offset="0" style="stop-color:#F1EEFF"/>
		<stop  offset="1" style="stop-color:#F1EEFF;stop-opacity:0"/>
	</linearGradient>
	<path class="st26" d="M53.2,58.8l-0.1,17.5L51,75.1l-2.1-1.2L49,57.3c0.7,0.3,1.4,0.6,2.1,0.9h0C51.8,58.4,52.5,58.6,53.2,58.8z"/>
	
		<linearGradient id="SVGID_22_" gradientUnits="userSpaceOnUse" x1="49.5117" y1="452.6962" x2="44.5073" y2="472.4103" gradientTransform="matrix(1 0 0 1 0 -400)">
		<stop  offset="0" style="stop-color:#F1EEFF"/>
		<stop  offset="1" style="stop-color:#F1EEFF;stop-opacity:0"/>
	</linearGradient>
	<path class="st27" d="M47.7,56.6l-0.1,16.5l-2.1-1.2l0.1-16.8c0.6,0.5,1.3,1,2,1.5L47.7,56.6z"/>
	
		<linearGradient id="SVGID_23_" gradientUnits="userSpaceOnUse" x1="48.426" y1="425.1761" x2="44.1786" y2="431.2611" gradientTransform="matrix(1 0 0 1 0 -400)">
		<stop  offset="0" style="stop-color:#D8D4F2"/>
		<stop  offset="1" style="stop-color:#A8A1D7"/>
	</linearGradient>
	<path class="st28" d="M49.7,25.4c-0.3-0.2-0.6-0.4-1-0.6c-0.5-0.3-1.3-0.2-2.1,0.2c-1.7,1-3.1,3.3-3.1,5.3c0,1,0.3,1.6,0.8,1.9
		c0.5,0.3,1.1,0.6,1.1,0.6L49.7,25.4z"/>
	
		<linearGradient id="SVGID_24_" gradientUnits="userSpaceOnUse" x1="44.3078" y1="429.0555" x2="50.4179" y2="429.0555" gradientTransform="matrix(1 0 0 1 -1.011779e-02 -399.9973)">
		<stop  offset="0" style="stop-color:#F1EEFF"/>
		<stop  offset="1" style="stop-color:#D8D4F2"/>
	</linearGradient>
	<path class="st29" d="M45.2,27.8c1.2-2.1,3.1-3.2,4.3-2.5c1.2,0.7,1.2,2.9,0,5s-3.1,3.2-4.3,2.5C44,32.1,44,29.9,45.2,27.8z"/>
	<ellipse transform="matrix(0.5047 -0.8633 0.8633 0.5047 -1.3857 55.951)" class="st30" cx="48.1" cy="29.2" rx="5.8" ry="3.3"/>
	
		<linearGradient id="SVGID_25_" gradientUnits="userSpaceOnUse" x1="46.5476" y1="422.0999" x2="51.6686" y2="422.0999" gradientTransform="matrix(1 0 0 1 0 -400)">
		<stop  offset="0" style="stop-color:#869AFB"/>
		<stop  offset="1" style="stop-color:#617AF8"/>
	</linearGradient>
	<path class="st31" d="M51.7,22.4c-1.2-0.7-2.8-0.4-4.2,0.3c-0.3-0.2-0.5-0.4-0.8-0.5c1.3-0.6,2.7-0.9,3.8-0.5
		C50.8,21.9,51.2,22.1,51.7,22.4z"/>
	
		<linearGradient id="SVGID_26_" gradientUnits="userSpaceOnUse" x1="43.9705" y1="428.6347" x2="49.0422" y2="428.6347" gradientTransform="matrix(1 0 0 1 0 -400)">
		<stop  offset="0" style="stop-color:#617AF8"/>
		<stop  offset="1" style="stop-color:#1336BF"/>
	</linearGradient>
	<path class="st32" d="M49,24.9c-0.1,0.1-0.3,0.2-0.4,0.3c-2.1,1.4-3.8,4.4-3.8,6.8c0,1.2,0.4,2.1,1.1,2.5c-0.2-0.1-0.4-0.2-0.7-0.4
		c-0.7-0.4-1.2-1.3-1.2-2.6c0-2.4,1.6-5.4,3.8-6.8c0.1-0.1,0.3-0.2,0.4-0.3c0.1-0.1,0.2-1.1-0.7-1.8C49,23.2,49.1,24.8,49,24.9z"/>
	
		<linearGradient id="SVGID_27_" gradientUnits="userSpaceOnUse" x1="44.831" y1="428.4562" x2="53.1607" y2="428.4562" gradientTransform="matrix(1 0 0 1 0 -400)">
		<stop  offset="0" style="stop-color:#1336BF"/>
		<stop  offset="1" style="stop-color:#0C2C9D"/>
	</linearGradient>
	<path class="st33" d="M53.1,27.2c-0.1,0.5-0.1,1-0.3,1.6c-0.2,0.9-0.6,1.8-1.1,2.7c-0.7,1.2-1.6,2.2-2.7,2.9c0,0,0,0-0.1,0l0,0
		c-0.9,0.5-1.8,0.7-2.4,0.5h0c-0.2-0.1-0.4-0.1-0.5-0.3c-0.7-0.4-1.1-1.3-1.1-2.5c0-2.5,1.6-5.4,3.8-6.8c0.1-0.1,0.3-0.2,0.4-0.3
		c0.1-0.1,0-1.7-1.6-2.2c1.5-0.7,3.1-1,4.2-0.3c0,0,0,0,0,0l0,0l0,0l0,0C52.7,23,53.4,24.5,53.1,27.2z"/>
	
		<linearGradient id="SVGID_28_" gradientUnits="userSpaceOnUse" x1="54.4432" y1="438.7036" x2="79.4588" y2="437.5086" gradientTransform="matrix(1 0 0 1 0 -400)">
		<stop  offset="0" style="stop-color:#D8D4F2"/>
		<stop  offset="1" style="stop-color:#A8A1D7"/>
	</linearGradient>
	<path class="st34" d="M76.3,46.8c-0.8,1-1.9,1.9-3,2.5c-2.8,1.6-6.3,2.4-9.6,2.4c-2.8,0-5.4-0.6-7.4-1.7l-7-4.2
		c-0.5-0.3-1.1-0.7-1.5-1.1c-2.7-2.6-4.9-6.8-4.3-11.6c0.2-1.3,0.5-2.5,0.9-3.7c0.5-1.3,1.2-2.4,1.9-3.6c-1.6,2.4-0.9,5.1,2.1,6.9
		l0.5,0.3l2.8,1.6l4.6,2.8c2,1.2,4.7,1.8,7.5,1.8c3.4,0,7-0.8,9.7-2.4c3.6-2.1,5-4.9,3.8-7.3C82.2,38,78.3,44.2,76.3,46.8z"/>
	
		<linearGradient id="SVGID_29_" gradientUnits="userSpaceOnUse" x1="42.4712" y1="436.9518" x2="65.9243" y2="439.9843" gradientTransform="matrix(1 0 0 1 0 -400)">
		<stop  offset="0" style="stop-color:#F1EEFF"/>
		<stop  offset="1" style="stop-color:#D8D4F2;stop-opacity:0"/>
	</linearGradient>
	<path class="st35" d="M76.3,46.8c-0.8,1-1.9,1.9-3,2.5c-2.8,1.6-6.3,2.4-9.6,2.4c-2.8,0-5.4-0.6-7.4-1.7l-7-4.2
		c-0.5-0.3-1.1-0.7-1.5-1.1c-2.7-2.6-4.9-6.8-4.3-11.6c0.2-1.3,0.5-2.5,0.9-3.7c0.5-1.3,1.2-2.4,1.9-3.6c-1.6,2.4-0.9,5.1,2.1,6.9
		l0.5,0.3l2.8,1.6l4.6,2.8c2,1.2,4.7,1.8,7.5,1.8c3.4,0,7-0.8,9.7-2.4c3.6-2.1,5-4.9,3.8-7.3C82.2,38,78.3,44.2,76.3,46.8z"/>
	<path class="st36" d="M64.5,42.1l0,5.9c0,0.4-0.3,0.7-0.7,0.7l0,0c-2.8,0-5.4-0.6-7.4-1.7l-7-4.2c-0.7-0.4-1.3-0.9-1.8-1.4
		c-0.7-0.7-1.2-1.4-1.8-2.2c-0.5-0.8-0.8-1.8-0.8-2.9l0-4c0-0.3,0.2-0.5,0.5-0.5c0.2,0,0.3,0.1,0.4,0.2c0.5,0.7,1.1,1.4,1.7,2.1
		c0.5,0.5,1.2,1,1.8,1.4l7,4.2c2,1.2,4.6,1.7,7.4,1.7l0,0C64.1,41.4,64.5,41.7,64.5,42.1L64.5,42.1z"/>
	<path class="st37" d="M64.5,42.1l0,5.8c-0.1,0.1-0.2,0.1-0.4,0.1l0,0c-2.8,0-5.4-0.6-7.4-1.7l-7-4.2c-0.7-0.4-1.3-0.9-1.8-1.4
		c-0.7-0.7-1.2-1.4-1.8-2.2c-0.5-0.8-0.8-1.8-0.8-2.9l0-3.8c0.2-0.1,0.5,0,0.6,0.2c0.5,0.7,1.1,1.4,1.7,2.1c0.5,0.5,1.2,1,1.8,1.4
		l7,4.2c2,1.2,4.6,1.7,7.4,1.7l0,0C64.1,41.4,64.5,41.7,64.5,42.1L64.5,42.1z"/>
	
		<linearGradient id="SVGID_30_" gradientUnits="userSpaceOnUse" x1="54.5087" y1="436.9975" x2="70.2042" y2="420.8244" gradientTransform="matrix(1 0 0 1 0 -400)">
		<stop  offset="0" style="stop-color:#F1EEFF"/>
		<stop  offset="1" style="stop-color:#D8D4F2"/>
	</linearGradient>
	<path class="st38" d="M73.6,36.7c-2.8,1.6-6.4,2.4-9.7,2.4c-2.8,0-5.5-0.6-7.5-1.8l-4.6-2.8L49,32.9l-0.5-0.3
		c-3-1.8-3.7-4.4-2.1-6.9c0.1-0.1,0.1-0.1,0.1-0.2c0.7-1,1.8-2,3.3-2.9c2.8-1.6,6.4-2.4,9.7-2.4c2.8,0,5.5,0.6,7.5,1.8l7.9,4.7
		c1.2,0.7,2.1,1.6,2.5,2.5v0C78.5,31.7,77.2,34.6,73.6,36.7z"/>
	
		<linearGradient id="SVGID_31_" gradientUnits="userSpaceOnUse" x1="66.9635" y1="420.8518" x2="58.3587" y2="431.369" gradientTransform="matrix(1 0 0 1 0 -400)">
		<stop  offset="0" style="stop-color:#F1EEFF"/>
		<stop  offset="1" style="stop-color:#FFFFFF"/>
	</linearGradient>
	<path class="st39" d="M57.4,32.4L53,29.6c-3.1-1.8-2.7-4.9,0.9-6.9l0,0c3.6-2,8.9-2.2,12-0.4l4.4,2.7c3.1,1.8,2.7,4.9-0.9,6.9l0,0
		C65.9,34,60.5,34.2,57.4,32.4z"/>
	<ellipse transform="matrix(0.5047 -0.8633 0.8633 0.5047 1.0871 87.132)" class="st30" cx="76.5" cy="42.6" rx="5.8" ry="3.3"/>
	<ellipse transform="matrix(0.5047 -0.8633 0.8633 0.5047 1.105 86.0907)" class="st40" cx="75.6" cy="42.1" rx="6.5" ry="3.8"/>
	
		<linearGradient id="SVGID_32_" gradientUnits="userSpaceOnUse" x1="76.7751" y1="447.0849" x2="79.1078" y2="442.8771" gradientTransform="matrix(0.9948 -2.369615e-03 2.369615e-03 0.9948 -3.5782 -400.0297)">
		<stop  offset="0" style="stop-color:#F1EEFF"/>
		<stop  offset="1" style="stop-color:#C0BBE4"/>
	</linearGradient>
	<path class="st41" d="M72.2,40.7c1.6-2.7,4.2-4.2,5.8-3.3c1.6,0.9,1.6,3.9,0,6.6c-1.6,2.7-4.2,4.2-5.8,3.3
		C70.6,46.4,70.6,43.4,72.2,40.7z"/>
	
		<linearGradient id="SVGID_33_" gradientUnits="userSpaceOnUse" x1="63.6557" y1="421.4781" x2="61.7609" y2="428.1133" gradientTransform="matrix(1 0 0 1 0 -400)">
		<stop  offset="0" style="stop-color:#F13892"/>
		<stop  offset="0.93" style="stop-color:#D80976"/>
	</linearGradient>
	<path class="st42" d="M74.6,38.6v1l-0.8-0.4l-0.1-0.5c0-0.7-0.1-1.3-0.2-1.9c-0.7-3.5-2.8-6.5-5.9-8.3L54.8,21
		c-0.1-0.1-0.2-0.1-0.4-0.2c-0.8-0.4-1.8-0.5-2.6-0.4h0c-0.6,0.1-1.1,0.3-1.6,0.6c-0.2,0.1-0.3,0.2-0.5,0.3
		c-0.8,0.6-1.4,1.5-1.7,2.5c-0.4,0.4-0.8,0.8-1.2,1.2c0-2,1.1-3.9,2.9-4.9l0.1,0c1-0.6,2.2-0.8,3.3-0.7c0.8,0.1,1.6,0.3,2.3,0.7
		l0.7,0.4l12,7c3.2,1.9,5.5,5.1,6.2,8.7C74.5,37,74.6,37.8,74.6,38.6z"/>
	
		<linearGradient id="SVGID_34_" gradientUnits="userSpaceOnUse" x1="65.4085" y1="430.3069" x2="69.8056" y2="438.7995" gradientTransform="matrix(1 0 0 1 0 -400)">
		<stop  offset="0" style="stop-color:#F757A7"/>
		<stop  offset="0.93" style="stop-color:#A0045A"/>
	</linearGradient>
	<path class="st43" d="M77.5,36.9v1.3l-3,1.5v-1c0-4.6-2.5-8.8-6.4-11.1l-12.8-7.4c-0.7-0.4-1.5-0.7-2.3-0.7
		c-1.2-0.1-2.3,0.1-3.3,0.7l2.9-1.7c1.8-1,3.9-1,5.7,0l12.8,7.4C75.1,28,77.5,32.3,77.5,36.9z"/>
	
		<linearGradient id="SVGID_35_" gradientUnits="userSpaceOnUse" x1="50.5284" y1="420.0506" x2="49.3598" y2="424.1417" gradientTransform="matrix(1 0 0 1 0 -400)">
		<stop  offset="0" style="stop-color:#BC0768"/>
		<stop  offset="0.93" style="stop-color:#A0045A"/>
	</linearGradient>
	<path class="st44" d="M51.8,20.4c-0.4,0.5-0.6,1-0.8,1.6c-0.4,0.2-0.9,0.4-1.3,0.7c-0.6,0.3-1.2,0.7-1.7,1.2c0.3-1,0.9-1.9,1.7-2.5
		c0.1-0.1,0.3-0.2,0.5-0.3C50.7,20.7,51.2,20.5,51.8,20.4z"/>
	
		<linearGradient id="SVGID_36_" gradientUnits="userSpaceOnUse" x1="74.9698" y1="435.5292" x2="80.0909" y2="435.5292" gradientTransform="matrix(1 0 0 1 0 -400)">
		<stop  offset="0" style="stop-color:#869AFB"/>
		<stop  offset="1" style="stop-color:#617AF8"/>
	</linearGradient>
	<path class="st45" d="M80.1,35.8c-1.2-0.7-2.8-0.4-4.2,0.3c-0.3-0.2-0.5-0.4-0.8-0.5c1.3-0.6,2.7-0.9,3.8-0.5
		C79.2,35.3,79.7,35.6,80.1,35.8z"/>
	
		<linearGradient id="SVGID_37_" gradientUnits="userSpaceOnUse" x1="72.3906" y1="442.064" x2="77.4683" y2="442.064" gradientTransform="matrix(1 0 0 1 0 -400)">
		<stop  offset="0" style="stop-color:#617AF8"/>
		<stop  offset="1" style="stop-color:#1336BF"/>
	</linearGradient>
	<path class="st46" d="M77.4,38.3c-0.1,0.1-0.3,0.2-0.4,0.3c-2.1,1.4-3.8,4.4-3.8,6.8c0,1.2,0.4,2.1,1.1,2.5
		c-0.2-0.1-0.4-0.2-0.7-0.4c-0.7-0.4-1.2-1.3-1.2-2.6c0-2.4,1.6-5.4,3.8-6.8c0.1-0.1,0.3-0.2,0.4-0.3c0.1-0.1,0.2-1.1-0.7-1.8
		C77.4,36.7,77.6,38.3,77.4,38.3z"/>
	
		<linearGradient id="SVGID_38_" gradientUnits="userSpaceOnUse" x1="73.2533" y1="441.8855" x2="81.583" y2="441.8855" gradientTransform="matrix(1 0 0 1 0 -400)">
		<stop  offset="0" style="stop-color:#1336BF"/>
		<stop  offset="1" style="stop-color:#0C2C9D"/>
	</linearGradient>
	<path class="st47" d="M81.5,40.7c-0.1,0.5-0.1,1-0.3,1.6c-0.2,0.9-0.6,1.8-1.1,2.7c-0.7,1.2-1.6,2.2-2.7,2.9c0,0,0,0-0.1,0l0,0
		c-0.9,0.5-1.8,0.7-2.4,0.5h0c-0.2-0.1-0.4-0.1-0.5-0.3c-0.7-0.5-1.1-1.3-1.1-2.5c0-2.4,1.6-5.4,3.8-6.8c0.1-0.1,0.3-0.2,0.4-0.3
		c0.1-0.1,0-1.7-1.6-2.2c1.5-0.7,3.1-1,4.2-0.3c0,0,0,0,0,0l0,0l0,0l0,0C81.1,36.5,81.8,38,81.5,40.7z"/>
	<ellipse transform="matrix(0.5047 -0.8633 0.8633 0.5047 0.8822 88.4113)" class="st30" cx="77.5" cy="43.4" rx="4.6" ry="2.7"/>
	
		<linearGradient id="SVGID_39_" gradientUnits="userSpaceOnUse" x1="79.5995" y1="440.1535" x2="75.3521" y2="446.2385" gradientTransform="matrix(1 0 0 1 0 -400)">
		<stop  offset="0" style="stop-color:#D8D4F2"/>
		<stop  offset="1" style="stop-color:#A8A1D7"/>
	</linearGradient>
	<path class="st48" d="M80.8,40.4c-0.3-0.2-0.6-0.4-1-0.6c-0.5-0.3-1.3-0.2-2.1,0.2c-1.7,1-3,3.3-3,5.3c0,1,0.3,1.6,0.8,1.9
		s1.1,0.6,1.1,0.6L80.8,40.4z"/>
	
		<linearGradient id="SVGID_40_" gradientUnits="userSpaceOnUse" x1="75.4601" y1="444.0186" x2="81.5703" y2="444.0186" gradientTransform="matrix(1 0 0 1 -1.018135e-03 -399.9964)">
		<stop  offset="0" style="stop-color:#F1EEFF"/>
		<stop  offset="1" style="stop-color:#D8D4F2"/>
	</linearGradient>
	<path class="st49" d="M76.4,42.8c1.2-2.1,3.1-3.2,4.3-2.5c1.2,0.7,1.2,2.9,0,5c-1.2,2-3.1,3.2-4.3,2.5
		C75.1,47.1,75.2,44.8,76.4,42.8z"/>
	
		<linearGradient id="SVGID_41_" gradientUnits="userSpaceOnUse" x1="76.6278" y1="444.0131" x2="80.3902" y2="444.0131" gradientTransform="matrix(1 0 0 1 0 -400)">
		<stop  offset="0" style="stop-color:#D8D4F2"/>
		<stop  offset="1" style="stop-color:#A8A1D7"/>
	</linearGradient>
	<path class="st50" d="M80.4,42.9c0,1.2-0.8,2.6-1.9,3.2c-0.6,0.4-1.2,0.3-1.5,0c-0.3-0.3-0.4-0.7-0.4-1.1c0-1.2,0.8-2.6,1.9-3.2
		c0.3-0.2,0.7-0.3,1.2-0.2C80.1,41.8,80.4,42.2,80.4,42.9z"/>
	<path class="st13" d="M80,42.7c0,1.2-0.8,2.6-1.9,3.2c-0.3,0.2-0.7,0.3-1.2,0.2c-0.3-0.3-0.4-0.7-0.4-1.1c0-1.2,0.8-2.6,1.9-3.2
		c0.3-0.2,0.7-0.3,1.2-0.2C79.9,41.9,80,42.3,80,42.7z"/>
	
		<linearGradient id="SVGID_42_" gradientUnits="userSpaceOnUse" x1="58.7418" y1="422.0023" x2="64.6309" y2="422.0023" gradientTransform="matrix(1 0 0 1 0 -400)">
		<stop  offset="0" style="stop-color:#FC77BD"/>
		<stop  offset="1" style="stop-color:#FC77BD;stop-opacity:0"/>
	</linearGradient>
	<polygon class="st51" points="64.6,22 61.7,23.7 60.2,22.9 58.8,22 61.7,20.3 63.2,21.2 	"/>
	
		<linearGradient id="SVGID_43_" gradientUnits="userSpaceOnUse" x1="60.2008" y1="422.8519" x2="66.0933" y2="422.8519" gradientTransform="matrix(1 0 0 1 0 -400)">
		<stop  offset="0" style="stop-color:#FC77BD"/>
		<stop  offset="1" style="stop-color:#FC77BD;stop-opacity:0"/>
	</linearGradient>
	<polygon class="st52" points="66.1,22.8 63.1,24.6 61.7,23.7 60.2,22.9 63.2,21.2 64.6,22 	"/>
	
		<linearGradient id="SVGID_44_" gradientUnits="userSpaceOnUse" x1="64.154" y1="424.6196" x2="68.2924" y2="424.6196" gradientTransform="matrix(1 0 0 1 0 -400)">
		<stop  offset="0" style="stop-color:#FC77BD"/>
		<stop  offset="1" style="stop-color:#FC77BD;stop-opacity:0"/>
	</linearGradient>
	<polygon class="st53" points="68.3,24.1 65.3,25.8 64.2,25.2 67.1,23.4 	"/>
	
		<linearGradient id="SVGID_45_" gradientUnits="userSpaceOnUse" x1="67.7735" y1="426.634" x2="71.6028" y2="426.634" gradientTransform="matrix(1 0 0 1 0 -400)">
		<stop  offset="0" style="stop-color:#FC77BD"/>
		<stop  offset="1" style="stop-color:#FC77BD;stop-opacity:0"/>
	</linearGradient>
	<path class="st54" d="M71.6,26l-3,1.7c-0.2-0.1-0.3-0.2-0.5-0.3l-0.4-0.2l3-1.7l0.4,0.2C71.3,25.8,71.4,25.9,71.6,26z"/>
	<ellipse transform="matrix(0.8633 -0.5047 0.5047 0.8633 -12.8386 30.7061)" class="st13" cx="50.3" cy="39.1" rx="1" ry="1.8"/>
	<ellipse transform="matrix(0.8633 -0.5047 0.5047 0.8633 -13.6005 34.0869)" class="st13" cx="56.1" cy="42.1" rx="1" ry="1.8"/>
	
		<linearGradient id="SVGID_46_" gradientUnits="userSpaceOnUse" x1="47.9226" y1="462.4444" x2="52.2646" y2="471.6192" gradientTransform="matrix(1 0 0 1 0 -400)">
		<stop  offset="0" style="stop-color:#C0BBE4"/>
		<stop  offset="1" style="stop-color:#A8A1D7"/>
	</linearGradient>
	<path class="st55" d="M55.6,69.9c0-3.1-2.2-6.8-4.9-8.3c-1-0.5-1.8-0.7-2.6-0.6c-0.7,0.1-1.9,0.7-1.9,0.7s-0.4,1.8-0.4,2.7
		c0,1.5,0.5,3.2,1.4,4.7c0.4,0.7-0.4,1.9-0.4,1.9c0.3,0.3,2.2,0.6,2.5,0.8c0.4,0.4,0.8,0.7,1.3,0.9c0.7,0.4,1.8,0.9,1.8,0.9
		s1.5-0.4,1.9-0.8C55.2,72.2,55.6,71.2,55.6,69.9z"/>
	
		<linearGradient id="SVGID_47_" gradientUnits="userSpaceOnUse" x1="174.4947" y1="-91.3073" x2="185.6634" y2="-91.3073" gradientTransform="matrix(0.87 0.5 0 1.15 -106.5552 82.8282)">
		<stop  offset="0" style="stop-color:#F1EEFF"/>
		<stop  offset="1" style="stop-color:#FFFFFF"/>
	</linearGradient>
	<path class="st56" d="M54.7,70.2c0-3.1-2.2-6.8-4.9-8.3S45,61.6,45,64.7c0,1.5,0.5,3.2,1.4,4.7c0.4,0.7-0.4,1.9-0.4,1.9
		c0.3,0.3,2.2,0.6,2.5,0.8c0.4,0.4,0.8,0.7,1.3,0.9C52.5,74.5,54.7,73.3,54.7,70.2z"/>
	
		<linearGradient id="SVGID_48_" gradientUnits="userSpaceOnUse" x1="48.0026" y1="464.5556" x2="51.7284" y2="471.6837" gradientTransform="matrix(1 0 0 1 0 -400)">
		<stop  offset="0" style="stop-color:#C0BBE4"/>
		<stop  offset="1" style="stop-color:#A8A1D7"/>
	</linearGradient>
	<path class="st57" d="M54.1,70c0,1.4-0.5,2.4-1.4,2.7l0,0C52,73.1,51,73,49.9,72.4c-0.4-0.2-0.7-0.5-1.1-0.8
		c-0.1-0.1-0.1-0.1-0.2-0.2c-0.3-0.2-0.7-0.2-1.3-0.4l-0.1,0c0.2-0.6,0.1-1.2-0.2-1.7c-0.8-1.4-1.2-2.8-1.2-4.1
		c0-1.7,0.7-2.7,1.9-2.9c0.7-0.1,1.5,0.1,2.3,0.5C52.2,64.2,54.1,67.4,54.1,70z"/>
	
		<linearGradient id="SVGID_49_" gradientUnits="userSpaceOnUse" x1="46.2703" y1="467.511" x2="54.0812" y2="467.511" gradientTransform="matrix(1 0 0 1 0 -400)">
		<stop  offset="0" style="stop-color:#1B41E0"/>
		<stop  offset="1" style="stop-color:#1336BF"/>
	</linearGradient>
	<path class="st58" d="M54.1,70c0,1.4-0.5,2.4-1.4,2.7l0,0c-0.7,0.1-1.4-0.1-2.3-0.5c-0.4-0.2-0.7-0.5-1.1-0.8
		c-0.1-0.1-0.1-0.1-0.2-0.2c-0.4-0.2-0.9-0.3-1.3-0.4l-0.1,0c0.2-0.6,0.1-1.2-0.2-1.7c-0.8-1.3-1.2-2.8-1.2-4.1
		c0-1.4,0.5-2.4,1.3-2.7c0.7-0.1,1.5,0.1,2.3,0.5C52.2,64.2,54.1,67.4,54.1,70z"/>
	<ellipse transform="matrix(0.8633 -0.5047 0.5047 0.8633 -26.9263 33.0196)" class="st59" cx="47.5" cy="66.2" rx="0.6" ry="1"/>
	<ellipse transform="matrix(0.8633 -0.5047 0.5047 0.8633 -27.3001 34.4293)" class="st59" cx="49.9" cy="67.6" rx="0.6" ry="1"/>
	<ellipse transform="matrix(0.8633 -0.5047 0.5047 0.8633 -27.6737 35.8388)" class="st59" cx="52.3" cy="69" rx="0.6" ry="1"/>
	<path class="st60" d="M86.8,132.7l3.8-1.9c0.5-0.2,0.6-0.8,0.4-1.2c-0.1-0.2-0.2-0.3-0.4-0.4L23.8,90.5C23,90.1,21.9,90,21,90.5
		l-3.8,1.9c-0.5,0.2-0.6,0.8-0.4,1.2c0.1,0.2,0.2,0.3,0.4,0.4l1.6,0.9l-3.4,1.8h6.4L84,132.6C84.9,133.1,85.9,133.1,86.8,132.7z"/>
</g>
<path class="st61" d="M199.9,97.5V60.2c-0.1-3.5,1.2-6.9,3.6-9.5c2.2-2.5,5.4-3.9,8.8-3.9h3.2c0.8,0,1.6,0.3,2.1,0.9
	c0.5,0.6,0.8,1.4,0.8,2.2c0,0.8-0.3,1.6-0.8,2.2c-0.5,0.6-1.3,1-2.1,0.9h-1.8c-1.7-0.1-3.4,0.6-4.6,1.8c-1.2,1.2-1.9,2.9-1.8,4.6
	v7.1h9.1c0.6,0,1.2,0.3,1.5,0.8c0.8,1.2,0.8,2.7,0,3.9c-0.3,0.5-0.9,0.8-1.5,0.8h-9.1v25.4c0,0.7-0.5,1.4-1.1,1.7
	c-0.8,0.5-1.7,0.7-2.7,0.7c-0.9,0-1.8-0.2-2.6-0.7C200.2,98.9,199.9,98.2,199.9,97.5z"/>
<path class="st61" d="M222.8,97.4V69c0-0.7,0.4-1.4,1-1.7c0.8-0.5,1.7-0.7,2.6-0.7c0.8,0,1.7,0.2,2.4,0.7c0.6,0.4,1,1,1,1.7v3.1
	c0.8-1.7,2.1-3.1,3.6-4.2c1.5-1.1,3.4-1.7,5.3-1.7h2.2c0.8,0,1.5,0.4,2,1c0.6,0.6,0.9,1.5,0.8,2.3c0,0.9-0.3,1.7-0.8,2.3
	c-0.5,0.6-1.2,1-2,1h-2.2c-2.2,0-4.2,1-5.9,2.9c-1.7,1.9-2.6,4.4-2.6,7.4v14.3c0,0.6-0.4,1.2-1.1,1.7c-0.8,0.5-1.7,0.8-2.7,0.8
	c-0.9,0-1.8-0.2-2.6-0.8C223.2,98.8,222.8,98.1,222.8,97.4z"/>
<path class="st61" d="M245.9,86.5v-6.4c0-3.7,1.4-6.9,4.3-9.7c2.7-2.7,6.4-4.2,10.2-4.1c3.8,0,7.5,1.4,10.2,4.1
	c2.9,2.7,4.4,6,4.4,9.7v6.4c0,3.7-1.5,6.9-4.4,9.7c-5.6,5.6-14.6,5.7-20.3,0.1c0,0,0,0-0.1-0.1C247.4,93.5,245.9,90.2,245.9,86.5z
	 M253.3,86.5c0,1.9,0.8,3.8,2.1,5.1c2.5,2.8,6.7,3,9.5,0.6c0.2-0.2,0.4-0.4,0.6-0.6c1.4-1.4,2.1-3.2,2.1-5.1v-6.4
	c0-1.9-0.8-3.7-2.1-5c-2.5-2.8-6.8-3-9.6-0.5c-0.2,0.1-0.3,0.3-0.5,0.5c-1.3,1.3-2.1,3.1-2.1,5L253.3,86.5z"/>
<path class="st61" d="M281.4,97.4V69c0-0.7,0.4-1.4,1-1.7c0.8-0.5,1.7-0.7,2.6-0.7c0.8,0,1.7,0.2,2.4,0.7c0.6,0.4,1,1,0.9,1.7v2.6
	c0.8-1.6,2.1-2.9,3.6-3.9c1.7-1.1,3.7-1.6,5.8-1.6c3.3,0,6.2,1.4,8.6,4.1c2.4,2.7,3.7,6.2,3.6,9.8v17.4c0,0.7-0.4,1.4-1.1,1.8
	c-0.8,0.5-1.7,0.7-2.6,0.7c-0.9,0-1.8-0.2-2.5-0.7c-0.7-0.3-1.1-1-1.1-1.8V80.1c0-1.9-0.8-3.7-2.1-5c-1.3-1.4-3.1-2.2-5-2.2
	c-1.8,0-3.5,0.7-4.7,2c-1.4,1.4-2.1,3.3-2,5.3v17.4c0,0.6-0.4,1.2-1.1,1.7c-0.8,0.5-1.7,0.8-2.6,0.8c-0.9,0-1.8-0.2-2.6-0.8
	C281.8,98.8,281.5,98.2,281.4,97.4z"/>
<path class="st61" d="M317.3,89V53.8c0-0.7,0.5-1.4,1.1-1.7c0.7-0.5,1.6-0.7,2.5-0.7c0.9,0,1.8,0.2,2.6,0.7c0.7,0.3,1.1,1,1.2,1.7
	v12.8h8.6c0.6,0,1.2,0.3,1.5,0.8c0.8,1.2,0.8,2.7,0,3.9c-0.3,0.5-0.9,0.8-1.5,0.8h-8.6V89c0,1.7,0.4,2.9,1.1,3.6
	c0.7,0.7,2,1.1,3.8,1.1h2.5c0.9,0,1.7,0.3,2.3,0.9c1.1,1.3,1.1,3.2,0,4.5c-0.6,0.6-1.4,1-2.3,0.9h-2.5
	C321.4,99.9,317.3,96.3,317.3,89z"/>
<path class="st62" d="M124.7,91.3l42.9-42.9c2.1-2.1,5.5-2.1,7.6,0l0,0c2.1,2.1,2.1,5.5,0,7.6l-42.9,42.9c-2.1,2.1-5.5,2.1-7.6,0
	l0,0C122.6,96.8,122.6,93.4,124.7,91.3z"/>
<path class="st13" d="M128.5,46.8h42.9c3,0,5.4,2.4,5.4,5.4l0,0c0,3-2.4,5.4-5.4,5.4h-42.9c-3,0-5.4-2.4-5.4-5.4l0,0
	C123.1,49.2,125.5,46.8,128.5,46.8z"/>
<circle class="st13" cx="187.7" cy="52.2" r="5.4"/>
<path class="st62" d="M187.7,62.9L187.7,62.9c3,0,5.4,2.4,5.4,5.4v26.8c0,3-2.4,5.4-5.4,5.4l0,0c-3,0-5.4-2.4-5.4-5.4V68.3
	C182.4,65.3,184.8,62.9,187.7,62.9z"/>
<path class="st13" d="M128.5,89.7h42.9c3,0,5.4,2.4,5.4,5.4l0,0c0,3-2.4,5.4-5.4,5.4h-42.9c-3,0-5.4-2.4-5.4-5.4l0,0
	C123.1,92.1,125.5,89.7,128.5,89.7z"/>
</svg>
